<svg xmlns="http://www.w3.org/2000/svg" width="268" height="72" viewBox="0 0 268 72" fill="none">
  <path d="M224.924 8.42122C223.49 8.42122 222.295 9.069 221.325 10.3508C220.355 11.6326 219.877 13.4381 219.877 15.7673C219.877 18.0966 220.341 19.8745 221.269 21.1149C222.197 22.3554 223.406 22.9756 224.91 22.9756C226.414 22.9756 227.638 22.3416 228.579 21.0874C229.521 19.8332 229.985 18.0277 229.985 15.6846C229.985 13.3416 229.507 11.5499 228.523 10.2819C227.553 9.02765 226.358 8.39366 224.924 8.39366M224.896 31.507C220.707 31.507 217.29 30.1563 214.647 27.4687C212.004 24.7811 210.683 20.8531 210.683 15.6846C210.683 10.5162 212.018 6.61571 214.69 3.95568C217.361 1.29565 220.805 -0.0412598 225.023 -0.0412598C229.24 -0.0412598 232.656 1.26808 235.243 3.88676C237.844 6.50545 239.138 10.461 239.138 15.7811C239.138 21.1012 237.816 25.043 235.159 27.6203C232.502 30.2114 229.086 31.507 224.882 31.507H224.896ZM195.443 7.99396V14.9266H196.02C197.06 14.9266 197.946 14.6096 198.663 13.9618C199.38 13.314 199.731 12.4044 199.731 11.2466C199.731 10.0889 199.478 9.24817 198.986 8.752C198.494 8.25583 197.622 8.00775 196.371 8.00775H195.429L195.443 7.99396ZM190.874 31.1624C188.161 31.1624 186.797 30.873 186.797 30.2803V1.8883C186.797 0.895953 187.261 0.399782 188.189 0.399782H196.062C200.476 0.399782 203.668 1.29565 205.622 3.07359C207.576 4.85154 208.546 7.44266 208.546 10.8332C208.546 13.6448 207.618 16.2084 205.776 18.5514C204.848 19.7229 203.499 20.6601 201.699 21.363C199.914 22.0659 197.819 22.4105 195.429 22.4105V30.2666C195.429 30.6111 194.867 30.8592 193.756 30.997C192.632 31.1349 191.676 31.19 190.874 31.19V31.1624ZM178.629 31.1211C175.972 31.1211 174.65 30.8316 174.65 30.239L173.709 12.6525L168.254 30.4595C168.141 30.8041 167.115 30.9832 165.217 30.9832C163.319 30.9832 162.321 30.8179 162.265 30.5009L156.627 12.4733L155.995 29.9771C155.967 30.4182 155.404 30.7214 154.294 30.873C153.183 31.0384 152.269 31.1211 151.538 31.1211C150.807 31.1211 150.104 31.0797 149.415 30.9832C147.981 30.7765 147.278 30.4182 147.306 29.8806L148.333 1.36456C148.333 0.66165 150.146 0.317086 153.787 0.317086C154.856 0.317086 156.177 0.399782 157.724 0.565172C159.27 0.730563 160.142 1.03378 160.325 1.50239L165.344 15.3263L169.73 1.46104C169.997 0.702997 172.05 0.317086 175.902 0.317086C176.998 0.317086 178.32 0.399782 179.866 0.565172C181.399 0.730563 182.172 1.00621 182.172 1.41969L183.465 30.1976C183.465 30.5146 182.889 30.7489 181.722 30.9006C180.555 31.0522 179.529 31.1211 178.629 31.1211ZM140.699 12.5698C141.261 12.5698 141.556 13.5897 141.556 15.6433C141.556 16.2635 141.486 16.9802 141.36 17.8209C141.219 18.6479 140.98 19.0751 140.614 19.0751H134.935V23.458H143.173C143.679 23.458 144.017 24.1058 144.199 25.3875C144.284 25.9388 144.34 26.5315 144.34 27.1655C144.34 27.7995 144.256 28.6126 144.073 29.605C143.89 30.5973 143.595 31.0935 143.173 31.0935H127.863C126.725 31.0935 126.162 30.6387 126.162 29.729V1.52995C126.162 0.77191 126.5 0.385999 127.188 0.385999H143.201C143.834 0.385999 144.143 1.68156 144.143 4.27268C144.143 6.86379 143.834 8.15935 143.201 8.15935H134.921V12.5835H140.699V12.5698ZM118.064 30.3768C118.064 30.9557 116.588 31.2589 113.636 31.2589C110.684 31.2589 109.207 30.9695 109.207 30.3768V8.37987H103.837C103.331 8.37987 102.965 7.70453 102.769 6.36762C102.684 5.71984 102.628 5.07206 102.628 4.39672C102.628 3.72137 102.67 3.05981 102.769 2.42582C102.979 1.07513 103.331 0.413564 103.837 0.413564H123.308C123.814 0.413564 124.18 1.08891 124.377 2.42582C124.461 3.07359 124.517 3.72137 124.517 4.39672C124.517 5.07206 124.475 5.73363 124.377 6.36762C124.166 7.71831 123.814 8.37987 123.308 8.37987H118.078V30.4044L118.064 30.3768Z" fill="white"/>
  <path d="M83.9722 49.5621C86.3622 46.2267 87.6837 42.1333 87.6837 38.0123C87.6837 30.1425 82.974 22.948 75.6917 19.6816L75.284 19.5024L75.1996 19.0613C73.372 9.39978 64.754 2.39825 54.7162 2.39825C51.2858 2.39825 48.0102 3.19764 44.9735 4.75507L44.4955 5.00315L44.0597 4.68615C40.1795 1.8883 35.5823 0.413564 30.7602 0.413564C18.3886 0.413564 8.30856 10.2956 8.30856 22.4381C8.30856 23.2926 8.36479 24.1609 8.46321 25.0292L8.51944 25.5529L8.06956 25.8424C3.00845 29.1364 -0.0141602 34.677 -0.0141602 40.6448C-0.0141602 41.2375 0.0139571 41.8439 0.0701917 42.4228C0.267013 44.4074 0.8153 46.337 1.65882 48.1425C2.48828 49.9067 3.61297 51.5055 4.97666 52.9113C6.34035 54.3171 7.91492 55.4886 9.65819 56.3845C11.542 57.363 13.679 58.0108 15.9846 58.314C17.1514 58.4656 18.2621 58.4794 19.5977 58.4794H22.2688C23.8434 58.4794 25.1368 57.2252 25.1368 55.6678C25.1368 54.1104 23.8574 52.8561 22.2688 52.8561H19.4571C18.4448 52.8561 17.5873 52.8561 16.7437 52.7459C15.0989 52.5254 13.6087 52.0843 12.3293 51.4228C11.1343 50.8025 10.0518 50.0032 9.12396 49.0384C8.18203 48.0736 7.42287 46.971 6.86052 45.7719C6.27006 44.5453 5.90453 43.2359 5.76394 41.8715C5.72177 41.4718 5.70771 41.0583 5.70771 40.6448C5.70771 35.9174 8.5335 31.5759 12.9198 29.5912C14.157 29.0261 14.8318 27.6754 14.5084 26.3661C14.1851 25.1119 14.0304 23.7888 14.0304 22.4381C14.0304 13.3967 21.5377 6.03684 30.7602 6.03684C35.0762 6.03684 39.1532 7.63562 42.2602 10.53C43.2302 11.4258 44.8189 11.5361 45.9014 10.778C48.4741 8.97252 51.5248 8.00774 54.7021 8.00774C62.5749 8.00774 69.1966 14.0307 69.773 21.7214C69.8573 22.8653 70.6305 23.8439 71.7412 24.2022C77.8567 26.1594 81.9618 31.7137 81.9618 38.0261C81.9618 40.9894 81.0058 43.9526 79.2766 46.3508C77.5052 48.8179 74.9044 50.8025 71.938 51.9051C69.8011 52.6908 67.4955 52.8286 65.3445 52.8561C64.5713 52.8561 63.8683 53.1594 63.32 53.7107C62.7999 54.2482 62.5046 54.9511 62.5187 55.7091C62.5468 57.239 63.8543 58.4794 65.4429 58.4794C68.1281 58.4381 71.0242 58.2589 73.9765 57.1563C78.0113 55.654 81.5541 52.9664 83.9863 49.5759L83.9722 49.5621Z" fill="white"/>
  <path d="M51.7076 71.5866C53.2822 71.5866 54.5756 70.3324 54.5756 68.775V49.8378L56.0798 51.3814C57.3451 52.6081 59.1306 52.5254 60.199 51.4641C60.7473 50.9266 61.0425 50.2237 61.0425 49.4794C61.0425 48.7352 60.7614 48.0322 60.2131 47.4947L53.9429 41.3477C52.8604 40.0246 50.5829 40.0246 49.5004 41.3477L43.2302 47.4947C42.1196 48.5835 42.1196 50.3615 43.2302 51.4641C44.3128 52.5254 46.1966 52.5254 47.2791 51.4641L48.7693 50.0032L48.8678 51.9603V68.7612C48.8678 70.3048 50.1471 71.5728 51.7217 71.5728L51.7076 71.5866Z" fill="white"/>
  <path d="M35.4277 40.314C33.8531 40.314 32.5597 41.5682 32.5597 43.1257V61.994L30.9852 60.4641C29.9026 59.4028 28.0188 59.4028 26.9363 60.4641C26.402 60.9878 26.1068 61.6908 26.1068 62.4488C26.1068 63.2068 26.402 63.9097 26.9363 64.4335L33.8109 71.0904L34.2468 71.3385L34.8372 71.5315L35.3293 71.6004H35.4418C35.6245 71.6004 35.8073 71.5728 35.99 71.5315L36.8054 71.2283C36.8054 71.2283 36.932 71.1594 37.0304 71.1042L37.3818 70.8424L43.9332 64.4197C44.4815 63.8822 44.7767 63.1793 44.7767 62.435C44.7767 61.6907 44.4815 60.9878 43.9332 60.4503C42.8507 59.3891 40.9527 59.3891 39.8843 60.4503L38.3941 61.9113L38.2957 59.9404V43.1119C38.2957 41.5682 37.0163 40.3002 35.4418 40.3002L35.4277 40.314Z" fill="white"/>
  <path d="M258.707 55.6953C257.597 55.6953 256.669 56.0261 255.924 56.6877C255.389 57.1701 254.982 57.8041 254.714 58.6035C254.546 59.0859 254.925 59.5958 255.446 59.5958H261.884C262.419 59.5958 262.784 59.0721 262.615 58.5897C262.334 57.7765 261.927 57.1425 261.42 56.6739C260.718 56.0261 259.804 55.6953 258.707 55.6953ZM258.834 51.1747C260.858 51.1747 262.559 51.6295 263.937 52.5529C265.315 53.4764 266.341 54.7168 267.002 56.2742C267.662 57.8316 268 59.5682 268 61.4978V63.1241H255.446C254.925 63.1241 254.546 63.6479 254.714 64.1303C255.038 65.0261 255.558 65.7566 256.247 66.2941C257.175 67.0246 258.595 67.3967 260.493 67.3967C261.603 67.3967 262.601 67.2451 263.473 66.9419C264.134 66.7214 264.837 66.4182 265.582 66.046C265.99 65.8393 266.482 66.0047 266.65 66.4182L267.691 68.9266C267.817 69.2436 267.719 69.6157 267.438 69.8224C266.552 70.4427 265.61 70.9251 264.598 71.2834C263.403 71.7107 261.997 71.9174 260.366 71.9174C256.556 71.9174 253.646 71.0077 251.678 69.1747C249.696 67.3416 248.711 64.8194 248.711 61.5943C248.711 59.5131 249.119 57.68 249.935 56.1088C250.75 54.5376 251.917 53.3247 253.435 52.4702C254.953 51.6157 256.753 51.1884 258.834 51.1884V51.1747ZM236.312 67.3967C237.029 67.3967 237.732 67.2589 238.406 66.9832C238.983 66.7489 239.587 66.4182 240.206 65.9909C240.417 65.8531 240.543 65.605 240.543 65.3707V57.7076C240.543 57.4733 240.431 57.2528 240.248 57.1149C239.63 56.6326 239.039 56.288 238.463 56.0675C237.802 55.8056 237.085 55.6816 236.312 55.6816C234.85 55.6816 233.683 56.2329 232.825 57.3355C231.968 58.4381 231.532 59.8439 231.532 61.5805C231.532 63.3171 231.954 64.7229 232.797 65.7842C233.641 66.8592 234.807 67.3967 236.298 67.3967H236.312ZM245.211 71.4212H243.158L242.385 70.3048C242.132 69.9465 241.64 69.8914 241.274 70.1532C239.686 71.3247 237.957 71.9174 236.115 71.9174C232.994 71.9174 230.52 70.994 228.706 69.1333C226.892 67.2727 225.993 64.7643 225.993 61.5943C225.993 59.5269 226.4 57.7214 227.216 56.1502C228.031 54.579 229.212 53.3523 230.759 52.484C232.305 51.6157 234.147 51.1884 236.27 51.1884C236.93 51.1884 237.633 51.2987 238.392 51.533C239.138 51.7673 239.854 52.0843 240.543 52.484V43.8561C240.543 43.4702 240.853 43.1394 241.246 43.1119L245.155 42.7949C245.604 42.7535 245.984 43.0981 245.984 43.5391V70.6908C245.984 71.1042 245.647 71.435 245.225 71.435L245.211 71.4212ZM214.366 62.752C213.48 62.752 212.763 63.0277 212.229 63.5652C211.695 64.1027 211.414 64.7643 211.414 65.5223C211.414 66.1149 211.653 66.6387 212.145 67.0659C212.623 67.4932 213.241 67.7137 213.987 67.7137C215.491 67.7137 216.883 67.1349 218.176 65.9909C218.331 65.8531 218.429 65.6326 218.429 65.4258V63.4963C218.429 63.0828 218.092 62.752 217.67 62.752H214.366ZM215.153 56.0399C214.24 56.0399 213.227 56.164 212.131 56.4258C211.344 56.605 210.655 56.8117 210.036 57.046C209.628 57.1976 209.193 56.9771 209.052 56.5774L208.054 53.5453C207.927 53.1869 208.11 52.801 208.462 52.6356C209.164 52.3048 210.106 52.0016 211.301 51.726C212.876 51.3538 214.141 51.1747 215.083 51.1747C216.686 51.1747 218.148 51.4917 219.484 52.1119C220.805 52.7321 221.873 53.6004 222.661 54.7168C223.448 55.8332 223.842 57.0736 223.842 58.4519V70.677C223.842 71.0904 223.504 71.4212 223.083 71.4212H220.313L219.399 69.3125C217.712 71.0491 215.941 71.9174 214.085 71.9174C211.681 71.9174 209.867 71.3385 208.644 70.1946C207.421 69.0368 206.817 67.4932 206.817 65.5361C206.817 63.579 207.506 61.9802 208.897 60.8776C210.289 59.775 212.131 59.2237 214.451 59.2237H218.387C218.359 58.2176 218.064 57.4457 217.501 56.8806C216.939 56.3293 216.152 56.0537 215.153 56.0537V56.0399ZM193.714 67.3829C194.431 67.3829 195.134 67.2451 195.809 66.9695C196.385 66.7352 196.99 66.4044 197.608 65.9771C197.819 65.8393 197.946 65.5912 197.946 65.3569V57.6938C197.946 57.4595 197.833 57.239 197.65 57.1012C197.032 56.6188 196.441 56.2742 195.865 56.0537C195.204 55.7918 194.487 55.6678 193.714 55.6678C192.252 55.6678 191.085 56.2191 190.227 57.3217C189.37 58.4243 188.948 59.8301 188.948 61.5667C188.948 63.3033 189.37 64.7091 190.213 65.7704C191.057 66.8454 192.224 67.3829 193.714 67.3829ZM202.613 71.4074H200.561L199.787 70.2911C199.534 69.9327 199.042 69.8776 198.677 70.1394C197.088 71.311 195.359 71.9036 193.517 71.9036C190.396 71.9036 187.922 70.9802 186.108 69.1195C184.295 67.2589 183.395 64.7505 183.395 61.5805C183.395 59.5131 183.803 57.7076 184.618 56.1364C185.433 54.5652 186.614 53.3385 188.161 52.4702C189.707 51.6019 191.549 51.1747 193.672 51.1747C194.333 51.1747 195.036 51.2849 195.795 51.5192C196.54 51.7535 197.257 52.0705 197.946 52.4702V43.8424C197.946 43.4564 198.255 43.1257 198.649 43.0981L202.557 42.7811C203.007 42.7398 203.386 43.0843 203.386 43.5254V70.677C203.386 71.0904 203.049 71.4212 202.627 71.4212L202.613 71.4074ZM181.061 52.4289V70.6632C181.061 71.0767 180.724 71.4074 180.302 71.4074H176.436C176.014 71.4074 175.677 71.0767 175.677 70.6632V52.4289C175.677 52.0154 176.014 51.6846 176.436 51.6846H180.302C180.724 51.6846 181.061 52.0154 181.061 52.4289ZM182.383 45.9097C182.383 46.7505 182.088 47.4534 181.497 48.0185C180.907 48.5836 180.176 48.873 179.318 48.873C178.46 48.873 177.786 48.5836 177.209 48.0185C176.633 47.4534 176.338 46.7505 176.338 45.9097C176.338 45.069 176.633 44.3661 177.209 43.801C177.786 43.2359 178.489 42.9465 179.318 42.9465C180.147 42.9465 180.907 43.2359 181.497 43.801C182.088 44.3661 182.383 45.069 182.383 45.9097ZM166.047 43.1808C167.045 43.1808 168.254 43.3324 169.702 43.6356C170.869 43.8837 171.923 44.2145 172.879 44.6555C173.245 44.8209 173.399 45.262 173.231 45.6203L171.853 48.7489L170.812 48.4595C169.73 48.1287 168.872 47.9082 168.24 47.7842C167.607 47.6601 166.82 47.605 165.878 47.605C164.388 47.605 163.038 48.0185 161.857 48.8316C160.662 49.6448 159.734 50.8163 159.059 52.3324C158.385 53.8485 158.047 55.6264 158.047 57.6663C158.047 59.4855 158.342 61.1395 158.933 62.6418C159.523 64.144 160.395 65.3431 161.52 66.2252C162.658 67.1073 163.994 67.5483 165.54 67.5483C167.382 67.5483 169.224 67.2038 171.08 66.5284C171.445 66.3906 171.853 66.5284 172.022 66.873L173.385 69.4917C173.582 69.8638 173.427 70.3462 173.034 70.5116C172.134 70.8975 171.08 71.2283 169.899 71.4764C168.394 71.8071 167.031 71.9587 165.808 71.9587C162.954 71.9587 160.522 71.3385 158.511 70.0843C156.487 68.8439 154.968 67.1349 153.942 64.9848C152.916 62.8347 152.41 60.3952 152.41 57.68C152.41 54.9649 152.972 52.3462 154.097 50.1548C155.221 47.9633 156.81 46.2405 158.863 45.0139C160.929 43.7734 163.305 43.167 166.018 43.167L166.047 43.1808ZM132.081 62.7382C131.195 62.7382 130.478 63.0139 129.944 63.5514C129.41 64.0889 129.129 64.7505 129.129 65.5085C129.129 66.1012 129.368 66.6249 129.86 67.0522C130.338 67.4794 130.956 67.6999 131.701 67.6999C133.206 67.6999 134.597 67.1211 135.891 65.9771C136.045 65.8393 136.144 65.6188 136.144 65.412V63.4825C136.144 63.069 135.806 62.7382 135.385 62.7382H132.081ZM132.868 56.0261C131.954 56.0261 130.942 56.1502 129.846 56.412C129.058 56.5912 128.369 56.798 127.751 57.0323C127.343 57.1839 126.907 56.9633 126.767 56.5636L125.853 53.7933C125.642 53.1594 125.811 52.7734 126.162 52.6081C126.865 52.2773 127.807 51.9741 129.002 51.6984C130.577 51.3263 131.842 51.1471 132.784 51.1471C134.387 51.1471 135.849 51.4641 137.184 52.0843C138.506 52.7045 139.574 53.5728 140.361 54.6892C141.149 55.8056 141.542 57.046 141.542 58.4243V70.6494C141.542 71.0629 141.205 71.3937 140.783 71.3937H138.014L137.1 69.2849C135.413 71.0215 133.641 71.8898 131.786 71.8898C129.382 71.8898 127.568 71.311 126.345 70.167C125.122 69.0093 124.517 67.4656 124.517 65.5085C124.517 63.5514 125.206 61.9526 126.598 60.85C127.976 59.7474 129.832 59.1961 132.151 59.1961H136.088C136.06 58.19 135.764 57.4182 135.202 56.8531C134.64 56.3018 133.852 56.0261 132.854 56.0261H132.868ZM113.383 55.4197C112.441 55.4197 111.555 55.6264 110.726 56.0537C109.995 56.4258 109.179 56.9082 108.322 57.5146C108.125 57.6525 107.998 57.8868 107.998 58.1211C107.998 59.9817 107.998 68.141 107.998 70.6632C107.998 71.0767 107.661 71.4074 107.239 71.4074H103.373C102.951 71.4074 102.614 71.0767 102.614 70.6632V52.4289C102.614 52.0154 102.951 51.6846 103.373 51.6846H105.299C105.805 51.6846 106.269 51.9878 106.466 52.4427C106.761 53.1318 107.605 53.4074 108.251 53.0353C109.137 52.5254 110.065 52.0981 111.035 51.7673C112.441 51.2849 113.706 51.0368 114.817 51.0368C117.361 51.0368 119.147 51.7398 120.173 53.1456C121.2 54.5514 121.706 56.5223 121.706 59.0445V70.6632C121.706 71.0767 121.368 71.4074 120.946 71.4074H117.08C116.659 71.4074 116.321 71.0767 116.321 70.6632V59.2926C116.321 58.0659 116.068 57.1287 115.548 56.4396C115.042 55.7643 114.325 55.4197 113.411 55.4197H113.383Z" fill="white"/>
  <path d="M241.542 4.45185C241.542 3.66624 241.738 2.92199 242.146 2.23286C242.554 1.54373 243.102 1.00621 243.805 0.60652C244.508 0.206826 245.267 0.0138704 246.082 0.0138704C246.898 0.0138704 247.643 0.206826 248.346 0.60652C249.049 1.00621 249.611 1.54373 250.005 2.23286C250.413 2.92199 250.609 3.66624 250.609 4.46563C250.609 5.26502 250.413 5.96793 250.019 6.65706C249.625 7.3324 249.077 7.8837 248.374 8.29718C247.671 8.71065 246.898 8.91739 246.068 8.91739C245.239 8.91739 244.466 8.71065 243.763 8.31096C243.06 7.89748 242.512 7.35997 242.118 6.67084C241.724 5.98171 241.527 5.25124 241.527 4.47941L241.542 4.45185ZM242.174 4.45185C242.174 5.12719 242.343 5.77497 242.694 6.36762C243.046 6.96027 243.524 7.42888 244.128 7.77344C244.733 8.11801 245.38 8.2834 246.068 8.2834C246.757 8.2834 247.418 8.11801 248.023 7.77344C248.627 7.42888 249.091 6.96027 249.442 6.38141C249.794 5.80254 249.977 5.15476 249.977 4.46563C249.977 3.7765 249.808 3.14251 249.457 2.54986C249.105 1.95721 248.627 1.50239 248.037 1.15782C247.446 0.813258 246.785 0.634085 246.082 0.634085C245.38 0.634085 244.733 0.799475 244.128 1.14404C243.524 1.4886 243.06 1.95721 242.708 2.53608C242.357 3.11494 242.174 3.76272 242.174 4.45185ZM247.91 3.37681C247.91 3.69381 247.826 3.96946 247.657 4.21755C247.488 4.46563 247.249 4.6448 246.94 4.75507L248.374 7.08431H247.362L246.111 4.98937H245.295V7.08431H244.395V1.81938H245.97C246.631 1.81938 247.123 1.94343 247.432 2.20529C247.741 2.46716 247.896 2.85307 247.896 3.37681H247.91ZM245.295 4.27268H245.942C246.265 4.27268 246.518 4.18998 246.715 4.02459C246.912 3.8592 247.01 3.65246 247.01 3.40438C247.01 3.11494 246.926 2.89442 246.757 2.77038C246.589 2.64634 246.307 2.57742 245.942 2.57742H245.309V4.27268H245.295Z" fill="white"/>
</svg>