<svg xmlns="http://www.w3.org/2000/svg" width="158" height="27" viewBox="0 0 158 27" fill="none">
  <path d="M23.8374 26.0415V25.6071C28.058 25.6071 30.561 23.0359 35.7689 15.3341L28.5113 4.47416C27.2584 2.57514 26.5482 1.83255 24.4264 1.83255V1.39815H39.9953V1.83255C38.2314 1.83255 37.9196 2.54579 37.9196 3.44981C37.9196 4.15424 38.2862 4.83519 38.6904 5.5044L42.1748 10.7876C44.4843 7.36527 46.0837 4.91736 46.0837 3.40577C46.0837 2.25814 45.2176 1.84722 43.7366 1.84722V1.41283H52.6542V1.84722C49.4469 1.84722 47.7869 3.64352 42.5213 11.313L50.0877 22.76C51.3955 24.7119 52.7119 25.61 54.3401 25.61V26.0444H39.4265V25.61C40.7689 25.61 41.251 25.0993 41.251 24.251C41.251 23.6846 40.8382 22.9156 40.2724 22.0937L36.1037 15.8625C33.1245 20.3238 32.2989 21.7474 32.2989 23.0183C32.2989 24.5299 33.4536 25.61 35.4744 25.61V26.0444L23.8374 26.0415ZM136.858 11.448C137.072 4.25403 138.403 2.32859 140.005 2.32859C141.607 2.32859 143.198 3.89595 143.137 11.448H136.858ZM127.889 13.3353C127.889 23.711 138.426 28.9414 147.543 24.3919L147.254 24.0984C141.281 26.1237 137.06 21.6593 137.06 13.3324C137.06 12.9479 137.06 12.578 137.06 12.217H151.651C151.651 4.95553 147.534 0.5 140.392 0.5C133.637 0.50587 127.889 6.31449 127.889 13.3353ZM84.8283 4.04857V3.63471L95.9659 0.963755V4.88508C98.437 3.03595 101.067 0.981365 103.879 0.981365C106.867 0.981365 108.847 2.39903 109.586 5.07586C112.129 3.1827 114.843 0.981365 117.753 0.981365C121.61 0.981365 123.787 3.32947 123.781 7.73216V22.713C123.781 24.7676 124.211 25.158 125.646 25.158V25.5807H113.521V25.158C114.811 25.158 115.291 24.5357 115.291 22.9977V6.47885C115.291 3.51437 112.294 3.89888 109.751 5.79791C109.86 6.43264 109.912 7.0761 109.907 7.72041V22.713C109.907 24.7676 110.34 25.1609 111.774 25.1609V25.5836H99.6495V25.1609C100.943 25.1609 101.419 24.5387 101.419 23.0007V6.47592C101.419 3.5408 98.4976 3.88714 95.9745 5.72746V23.4321C95.9745 24.7764 96.7886 25.1609 97.8394 25.1609V25.5836H84.8485V25.1609C86.6182 25.1609 87.4785 23.8695 87.4785 21.9V6.84281C87.4583 4.97607 85.6597 4.04857 84.8283 4.04857ZM64.193 20.0127C64.193 16.878 65.544 13.849 69.9927 12.8158L70.0245 20.315C69.8888 22.2493 68.4425 23.3235 67.0654 23.3059C65.4546 23.2854 64.193 22.2581 64.193 20.0127ZM55.671 20.9109C55.671 25.3899 59.9608 26.4876 61.9643 26.4876C65.5642 26.4876 69.1122 24.4506 70.2641 21.6124C70.7144 24.9467 72.6602 26.4876 76.3583 26.4876C79.6002 26.4876 81.699 25.1375 83.0327 22.6338L82.7007 22.4195C80.9368 23.9605 78.6591 22.804 78.6591 19.6722V8.19003C78.6591 2.39903 71.3524 -0.585995 64.7097 1.76798L64.779 2.16715C68.5117 2.19357 70.1255 4.73245 70.1255 9.21145L70.1399 12.1466C59.3459 13.4586 55.671 16.3702 55.671 20.9109ZM9.91985 11.448C10.1306 4.25403 11.4614 2.32859 13.0636 2.32859C14.6659 2.32859 16.2565 3.89595 16.1959 11.448H9.91985ZM0.5 13.7316C0.5 24.976 13.081 30.3121 22.6134 23.4351L22.3247 23.1416C14.9979 27.4797 9.66869 23.1592 9.66869 13.7286C9.66869 13.3471 9.66869 12.9772 9.66869 12.6191H24.2589C24.2589 5.38992 20.1423 0.957879 13.0001 0.957879C6.24775 0.960814 0.5 6.74595 0.5 13.7316ZM61.5024 10.092C61.976 10.1007 62.4465 10.0124 62.8858 9.83212C63.325 9.65187 63.724 9.38346 64.059 9.04292C64.3939 8.70238 64.6579 8.29669 64.8352 7.8501C65.0125 7.4035 65.0994 6.92515 65.0908 6.44363C65.0908 5.72205 64.8803 5.01668 64.486 4.41671C64.0918 3.81674 63.5313 3.34912 62.8756 3.07298C62.22 2.79685 61.4984 2.7246 60.8024 2.86537C60.1063 3.00614 59.4669 3.35362 58.9651 3.86385C58.4632 4.37408 58.1215 5.02416 57.983 5.73188C57.8445 6.43959 57.9156 7.17315 58.1872 7.8398C58.4588 8.50646 58.9187 9.07625 59.5088 9.47714C60.0989 9.87802 60.7927 10.092 61.5024 10.092ZM153.905 26.4994C154.379 26.5085 154.85 26.4204 155.29 26.2404C155.73 26.0603 156.129 25.7921 156.465 25.4515C156.8 25.111 157.065 24.7052 157.243 24.2584C157.42 23.8116 157.508 23.3329 157.499 22.851C157.499 22.1294 157.289 21.424 156.895 20.8241C156.5 20.2241 155.94 19.7565 155.284 19.4803C154.629 19.2042 153.907 19.132 153.211 19.2727C152.515 19.4135 151.876 19.761 151.374 20.2712C150.872 20.7814 150.53 21.4315 150.392 22.1392C150.253 22.8469 150.324 23.5805 150.596 24.2472C150.867 24.9138 151.327 25.4836 151.917 25.8845C152.508 26.2854 153.201 26.4994 153.911 26.4994H153.905Z" fill="white"/>
</svg>