<svg xmlns="http://www.w3.org/2000/svg" width="48" height="48" viewBox="0 0 48 48" fill="none">
  <path d="M40.9401 3.99979H7.06012C6.67927 3.9945 6.30112 4.06429 5.94725 4.20516C5.59338 4.34603 5.27072 4.55523 4.99771 4.82082C4.7247 5.0864 4.50668 5.40316 4.3561 5.75301C4.20552 6.10286 4.12533 6.47895 4.12012 6.85979V41.1398C4.12533 41.5206 4.20552 41.8967 4.3561 42.2466C4.50668 42.5964 4.7247 42.9132 4.99771 43.1788C5.27072 43.4443 5.59338 43.6535 5.94725 43.7944C6.30112 43.9353 6.67927 44.0051 7.06012 43.9998H40.9401C41.321 44.0051 41.6991 43.9353 42.053 43.7944C42.4069 43.6535 42.7295 43.4443 43.0025 43.1788C43.2755 42.9132 43.4936 42.5964 43.6441 42.2466C43.7947 41.8967 43.8749 41.5206 43.8801 41.1398V6.85979C43.8749 6.47895 43.7947 6.10286 43.6441 5.75301C43.4936 5.40316 43.2755 5.0864 43.0025 4.82082C42.7295 4.55523 42.4069 4.34603 42.053 4.20516C41.6991 4.06429 41.321 3.9945 40.9401 3.99979ZM16.1801 37.4798H10.1801V19.4798H16.1801V37.4798ZM13.1801 16.9598C12.3526 16.9598 11.5591 16.6311 10.9739 16.046C10.3888 15.4609 10.0601 14.6673 10.0601 13.8398C10.0601 13.0123 10.3888 12.2187 10.9739 11.6336C11.5591 11.0485 12.3526 10.7198 13.1801 10.7198C13.6195 10.67 14.0645 10.7135 14.4859 10.8476C14.9073 10.9816 15.2956 11.2032 15.6254 11.4977C15.9553 11.7923 16.2192 12.1531 16.3999 12.5568C16.5806 12.9604 16.674 13.3976 16.674 13.8398C16.674 14.282 16.5806 14.7192 16.3999 15.1228C16.2192 15.5264 15.9553 15.8873 15.6254 16.1819C15.2956 16.4764 14.9073 16.698 14.4859 16.832C14.0645 16.9661 13.6195 17.0096 13.1801 16.9598ZM37.8201 37.4798H31.8201V27.8198C31.8201 25.3998 30.9601 23.8198 28.7801 23.8198C28.1054 23.8247 27.4485 24.0364 26.8978 24.4261C26.3471 24.8159 25.9291 25.3651 25.7001 25.9998C25.5436 26.4699 25.4758 26.9649 25.5001 27.4598V37.4598H19.5001C19.5001 37.4598 19.5001 21.0998 19.5001 19.4598H25.5001V21.9998C26.0452 21.054 26.8379 20.2748 27.793 19.7462C28.7481 19.2176 29.8293 18.9595 30.9201 18.9998C34.9201 18.9998 37.8201 21.5798 37.8201 27.1198V37.4798Z" fill="white"/>
</svg>