<svg xmlns="http://www.w3.org/2000/svg" width="29" height="30" viewBox="0 0 29 30" fill="none">
  <path d="M24.7347 2.91667H4.26551C4.03542 2.91348 3.80695 2.95564 3.59315 3.04075C3.37935 3.12586 3.18442 3.25225 3.01947 3.41271C2.85453 3.57316 2.72281 3.76454 2.63183 3.97591C2.54086 4.18728 2.49241 4.4145 2.48926 4.64459V25.3554C2.49241 25.5855 2.54086 25.8127 2.63183 26.0241C2.72281 26.2355 2.85453 26.4268 3.01947 26.5873C3.18442 26.7478 3.37935 26.8742 3.59315 26.9593C3.80695 27.0444 4.03542 27.0865 4.26551 27.0833H24.7347C24.9648 27.0865 25.1932 27.0444 25.407 26.9593C25.6208 26.8742 25.8158 26.7478 25.9807 26.5873C26.1457 26.4268 26.2774 26.2355 26.3684 26.0241C26.4593 25.8127 26.5078 25.5855 26.5109 25.3554V4.64459C26.5078 4.4145 26.4593 4.18728 26.3684 3.97591C26.2774 3.76454 26.1457 3.57316 25.9807 3.41271C25.8158 3.25225 25.6208 3.12586 25.407 3.04075C25.1932 2.95564 24.9648 2.91348 24.7347 2.91667ZM9.77551 23.1442H6.15051V12.2692H9.77551V23.1442ZM7.96301 10.7467C7.46307 10.7467 6.98362 10.5481 6.63011 10.1946C6.2766 9.84106 6.07801 9.36161 6.07801 8.86167C6.07801 8.36174 6.2766 7.88228 6.63011 7.52878C6.98362 7.17527 7.46307 6.97667 7.96301 6.97667C8.22847 6.94657 8.4973 6.97287 8.7519 7.05387C9.00649 7.13486 9.24111 7.26871 9.44038 7.44667C9.63966 7.62462 9.7991 7.84266 9.90827 8.08651C10.0174 8.33035 10.0739 8.59451 10.0739 8.86167C10.0739 9.12884 10.0174 9.39299 9.90827 9.63684C9.7991 9.88069 9.63966 10.0987 9.44038 10.2767C9.24111 10.4546 9.00649 10.5885 8.7519 10.6695C8.4973 10.7505 8.22847 10.7768 7.96301 10.7467ZM22.8497 23.1442H19.2247V17.3079C19.2247 15.8458 18.7051 14.8913 17.388 14.8913C16.9804 14.8942 16.5835 15.0221 16.2508 15.2576C15.918 15.4931 15.6655 15.8249 15.5272 16.2083C15.4326 16.4923 15.3916 16.7914 15.4063 17.0904V23.1321H11.7813C11.7813 23.1321 11.7813 13.2479 11.7813 12.2571H15.4063V13.7917C15.7356 13.2203 16.2146 12.7495 16.7916 12.4301C17.3686 12.1107 18.0219 11.9548 18.6809 11.9792C21.0976 11.9792 22.8497 13.5379 22.8497 16.885V23.1442Z" fill="#4E9CFF"/>
</svg>