<svg xmlns="http://www.w3.org/2000/svg" width="48" height="48" viewBox="0 0 48 48" fill="none">
  <path d="M40.9401 3.99997H7.06012C6.67927 3.99469 6.30112 4.06447 5.94725 4.20534C5.59338 4.34621 5.27072 4.55542 4.99771 4.821C4.7247 5.08658 4.50668 5.40334 4.3561 5.75319C4.20552 6.10304 4.12533 6.47913 4.12012 6.85997V41.14C4.12533 41.5208 4.20552 41.8969 4.3561 42.2468C4.50668 42.5966 4.7247 42.9134 4.99771 43.1789C5.27072 43.4445 5.59338 43.6537 5.94725 43.7946C6.30112 43.9355 6.67927 44.0053 7.06012 44H40.9401C41.321 44.0053 41.6991 43.9355 42.053 43.7946C42.4069 43.6537 42.7295 43.4445 43.0025 43.1789C43.2755 42.9134 43.4936 42.5966 43.6441 42.2468C43.7947 41.8969 43.8749 41.5208 43.8801 41.14V6.85997C43.8749 6.47913 43.7947 6.10304 43.6441 5.75319C43.4936 5.40334 43.2755 5.08658 43.0025 4.821C42.7295 4.55542 42.4069 4.34621 42.053 4.20534C41.6991 4.06447 41.321 3.99469 40.9401 3.99997ZM16.1801 37.48H10.1801V19.48H16.1801V37.48ZM13.1801 16.96C12.3526 16.96 11.5591 16.6313 10.9739 16.0461C10.3888 15.461 10.0601 14.6674 10.0601 13.84C10.0601 13.0125 10.3888 12.2189 10.9739 11.6338C11.5591 11.0487 12.3526 10.72 13.1801 10.72C13.6195 10.6701 14.0645 10.7137 14.4859 10.8477C14.9073 10.9818 15.2956 11.2034 15.6254 11.4979C15.9553 11.7924 16.2192 12.1533 16.3999 12.5569C16.5806 12.9605 16.674 13.3978 16.674 13.84C16.674 14.2822 16.5806 14.7194 16.3999 15.123C16.2192 15.5266 15.9553 15.8875 15.6254 16.1821C15.2956 16.4766 14.9073 16.6981 14.4859 16.8322C14.0645 16.9663 13.6195 17.0098 13.1801 16.96ZM37.8201 37.48H31.8201V27.82C31.8201 25.4 30.9601 23.82 28.7801 23.82C28.1054 23.8249 27.4485 24.0365 26.8978 24.4263C26.3471 24.8161 25.9291 25.3653 25.7001 26C25.5436 26.4701 25.4758 26.9651 25.5001 27.46V37.46H19.5001C19.5001 37.46 19.5001 21.1 19.5001 19.46H25.5001V22C26.0452 21.0542 26.8379 20.275 27.793 19.7464C28.7481 19.2177 29.8293 18.9597 30.9201 19C34.9201 19 37.8201 21.58 37.8201 27.12V37.48Z" fill="#4E9CFF"/>
</svg>