<svg xmlns="http://www.w3.org/2000/svg" width="24" height="27" viewBox="0 0 24 27" fill="none">
  <path d="M15.0755 18.0437L15.0762 18.044C15.6712 18.2804 16.0757 18.5528 16.3067 18.7818C16.4069 18.8811 16.4573 18.9533 16.4819 18.9964C16.433 19.085 16.2552 19.3659 15.6134 19.7134C15.2269 19.9226 14.7389 20.1121 14.1636 20.2526C14.3821 19.8752 14.5 19.4436 14.5 19V17.7211C14.6764 17.8533 14.8698 17.9619 15.0755 18.0437ZM9.5 19C9.5 19.4436 9.61794 19.8752 9.83644 20.2526C9.26114 20.1121 8.77313 19.9226 8.38662 19.7134C7.74485 19.3659 7.56701 19.085 7.51814 18.9964C7.54272 18.9533 7.59305 18.8811 7.69328 18.7818C7.92434 18.5528 8.32884 18.2804 8.92379 18.044L8.9245 18.0437C9.13155 17.9614 9.32475 17.8525 9.5 17.7211V19ZM9.5 12.886V13.7188C9.34334 13.6014 9.17219 13.5019 8.98942 13.4231C8.3808 13.161 7.69303 13.1511 7.07715 13.3956C4.51652 14.4108 2.5 16.39 2.5 19C2.5 21.0888 3.81246 22.7531 5.52076 23.8217C7.23996 24.8971 9.52762 25.5 12 25.5C14.4724 25.5 16.76 24.8971 18.4792 23.8217C20.1875 22.7531 21.5 21.0888 21.5 19C21.5 16.39 19.4835 14.4108 16.9228 13.3956C16.6182 13.2746 16.2927 13.2147 15.9649 13.2193C15.6365 13.2239 15.3122 13.2932 15.0106 13.4231C14.8289 13.5014 14.6576 13.6008 14.5 13.7189V12.886C15.3201 12.4675 16.0281 11.8465 16.5521 11.0738C17.3034 9.96589 17.6248 8.62197 17.4562 7.29398C17.2875 5.96598 16.6403 4.74509 15.6358 3.86016C14.6314 2.97522 13.3387 2.487 12 2.487C10.6613 2.487 9.36863 2.97522 8.36418 3.86016C7.35973 4.74509 6.71251 5.96598 6.54384 7.29398C6.37516 8.62197 6.6966 9.9659 7.44792 11.0738C7.9719 11.8465 8.67986 12.4675 9.5 12.886ZM12 7.49998C12.0989 7.49998 12.1956 7.52931 12.2778 7.58425C12.36 7.63919 12.4241 7.71728 12.4619 7.80864C12.4998 7.9 12.5097 8.00054 12.4904 8.09753C12.4711 8.19452 12.4235 8.28361 12.3536 8.35354C12.2836 8.42346 12.1945 8.47108 12.0975 8.49038C12.0006 8.50967 11.9 8.49977 11.8087 8.46192C11.7173 8.42408 11.6392 8.35999 11.5843 8.27777C11.5293 8.19554 11.5 8.09887 11.5 7.99998C11.5 7.86737 11.5527 7.7402 11.6464 7.64643C11.7402 7.55266 11.8674 7.49998 12 7.49998Z" fill="white" stroke="#001D41" stroke-width="3"/>
</svg>