<svg xmlns="http://www.w3.org/2000/svg" width="183" height="34" viewBox="0 0 183 34" fill="none">
  <path fill-rule="evenodd" clip-rule="evenodd" d="M11.9956 23.1364L20.8799 23.1442L20.5599 29.7708C18.0587 30.72 14.4549 30.7689 11.8573 29.5816L11.9956 23.1364ZM24.0512 23.1236L28.1146 23.1889C27.6423 24.4684 27.3328 24.8689 26.3784 25.8677L23.8744 27.881L24.0512 23.1236ZM9.04022 27.9391C7.2132 26.8864 5.44835 25.2475 4.78112 23.1463L8.99201 23.147L9.04022 27.9391ZM28.6554 22.5381C27.8463 21.467 23.3609 7.43607 22.7852 5.17969C28.2131 7.70828 31.3977 14.8021 28.6554 22.5381ZM4.25153 22.558C1.55676 14.9949 4.62602 7.53389 10.1616 5.18891C9.47968 7.78342 5.26949 21.1069 4.25153 22.558ZM10.6276 4.63669C16.6418 2.98357 16.2708 2.86377 22.2772 4.64945C21.7476 6.99443 17.353 20.8843 16.3127 22.2631L10.6276 4.63669ZM0.411635 20.4079C1.96548 28.1992 10.017 35.1307 19.7627 33.1614C27.555 31.5856 34.5431 23.5908 32.5121 13.5041C28.3068 -7.3888 -3.99279 -1.66457 0.411635 20.4079Z" fill="white"/>
  <path fill-rule="evenodd" clip-rule="evenodd" d="M126.807 10.7061L126.054 8.4022L121.241 8.4185L121.233 27.7136L126.562 27.7356C127.514 19.6486 124.697 12.8441 129.515 12.4308C134.863 11.9721 132.619 18.5243 133.105 27.664L138.454 27.7427C138.714 24.5867 138.526 20.9806 138.53 17.7715C138.539 13.5402 139.088 11.7942 143.742 12.6279C146.153 15.7165 144.526 23.1151 145.008 27.7448L150.409 27.698C150.694 24.474 150.902 13.3899 149.792 11.1945C148.764 9.15999 146.877 8.02649 144.147 7.97829C140.276 7.91023 139.624 9.76184 137.585 10.8833C136.75 9.00262 135.556 8.03925 132.517 7.96269C129.699 7.89109 127.981 8.70702 126.807 10.7061Z" fill="white"/>
  <path fill-rule="evenodd" clip-rule="evenodd" d="M107.095 20.7181C108.991 19.4364 111.301 19.2656 113.97 18.5751C114.014 21.2696 113.935 23.3849 111.265 24.2348C107.903 25.3067 106.66 24.0427 107.095 20.7181ZM107.109 14.6415C107.934 13.2209 107.864 12.4752 109.749 12.1604C111.666 11.8414 112.773 12.2597 113.885 13.0813L113.937 14.8315C109.414 17.4055 101.276 15.1122 101.425 22.5924C101.49 25.9234 103.457 27.7438 106.332 28.1862C110 28.7497 111.772 27.332 114.133 25.9298L114.779 27.7247H120.451C120.142 25.6654 119.843 27.4922 119.523 24.7977C118.657 17.5231 122.881 7.95606 111.415 7.95606C106.253 7.95606 102.7 9.11721 102.04 14.6607L107.109 14.6415Z" fill="white"/>
  <path fill-rule="evenodd" clip-rule="evenodd" d="M157.331 24.0596C155.755 19.2052 159.903 19.5022 164.056 18.5757C163.927 23.4138 162.249 25.51 157.331 24.0596ZM157.058 14.6449C157.863 13.4916 159.631 10.1088 163.866 13.0506L163.9 14.8469C159.356 17.7215 150.965 14.8895 151.421 23.0218C151.588 26.0062 153.755 27.9159 156.67 28.2363C160.656 28.6737 161.677 27.2247 164.082 25.7921L164.781 27.7217L170.377 27.7203C170.106 24.9499 169.414 27.5267 169.441 17.3479C169.451 13.3647 169.706 10.5277 166.566 9.01638C163.649 7.61279 153.348 5.58538 152.02 14.6775L157.058 14.6449Z" fill="white"/>
  <path fill-rule="evenodd" clip-rule="evenodd" d="M66.3926 20.4079C64.0011 11.1804 74.0466 9.57546 75.4495 15.8065C77.57 25.2198 67.9632 26.4724 66.3926 20.4079ZM68.0785 8.07971C55.7358 10.7685 58.7079 31.6281 74.1814 28.0419C85.4335 25.4332 83.6896 4.6792 68.0785 8.07971Z" fill="white"/>
  <path fill-rule="evenodd" clip-rule="evenodd" d="M95.3163 20.6312C94.4485 26.0229 87.8084 25.3913 87.8231 18.2309C87.8287 15.5109 88.4449 13.2659 90.4445 12.5939C93.9504 11.4143 94.5184 13.2907 95.6524 15.4032L100.828 15.3422C101.368 5.67445 82.1156 3.92776 82.1317 18.2238C82.1464 32.1619 99.7333 31.0064 100.853 20.639L95.3163 20.6312Z" fill="white"/>
  <path fill-rule="evenodd" clip-rule="evenodd" d="M54.5764 20.7212C53.4033 22.7195 52.88 24.6966 49.5145 23.8459C45.639 22.8663 45.7256 13.6267 49.4872 12.5357C52.7962 11.5759 53.4403 13.3935 54.5757 15.3493L59.8443 15.367C58.8767 4.5395 40.7755 4.63804 41.0438 18.6697C41.2904 31.6025 58.57 31.3332 59.8108 20.6262L54.5764 20.7212Z" fill="white"/>
  <path fill-rule="evenodd" clip-rule="evenodd" d="M176.414 27.7428C177.369 18.545 173.731 12.7308 182.998 13.1873L183 7.95855C179.442 8.00534 178.003 8.63341 176.919 10.9564L176.004 8.42429L171.05 8.40231L171.196 27.7321L176.414 27.7428Z" fill="white"/>
</svg>