<svg xmlns="http://www.w3.org/2000/svg" width="268" height="81" viewBox="0 0 268 81" fill="none">
  <path d="M208.61 18.8613H213.207L211.237 9.71392H210.977L208.61 18.8613ZM220.02 31.4079C217.489 31.4079 216.107 30.9934 215.902 30.1781L214.466 24.4852H207.516L206.243 29.957C206.065 30.869 204.67 31.325 202.043 31.325C200.648 31.325 199.608 31.2421 198.938 31.0763C198.267 30.9104 197.939 30.7861 197.939 30.7032L205.682 0.801433C205.682 0.56653 207.68 0.44217 211.675 0.44217C215.67 0.44217 217.667 0.56653 217.667 0.801433L225.233 30.7446C225.233 30.9519 224.562 31.1177 223.222 31.2283C221.881 31.3388 220.814 31.4079 220.034 31.4079H220.02ZM191.303 31.3664C188.704 31.3664 187.418 31.0763 187.418 30.4821L186.501 12.7677L181.166 30.7032C181.056 31.0624 180.058 31.2283 178.197 31.2283C176.336 31.2283 175.365 31.0624 175.31 30.7446L169.797 12.588L169.181 30.2057C169.154 30.6479 168.593 30.9519 167.512 31.1177C166.431 31.2835 165.542 31.3664 164.817 31.3664C164.092 31.3664 163.408 31.325 162.737 31.2283C161.342 31.021 160.658 30.6479 160.685 30.1228L161.697 1.40942C161.697 0.704708 163.476 0.345445 167.033 0.345445C168.087 0.345445 169.359 0.428352 170.878 0.594166C172.396 0.75998 173.244 1.07779 173.409 1.54759L178.306 15.4621L182.589 1.50614C182.849 0.746162 184.86 0.359263 188.622 0.359263C189.703 0.359263 190.989 0.44217 192.494 0.607984C193.999 0.773797 194.751 1.06397 194.751 1.46469L196.023 30.4406C196.023 30.7584 195.449 31.0072 194.313 31.1453C193.178 31.2973 192.165 31.3664 191.29 31.3664H191.303ZM145.704 23.7252V8.00051H143.816C143.324 8.00051 142.954 7.36489 142.763 6.10747C142.667 5.48567 142.626 4.85005 142.626 4.21443C142.626 3.57881 142.667 2.92938 142.763 2.32139C142.954 1.05015 143.31 0.428352 143.816 0.428352H156.376C156.868 0.428352 157.196 1.06397 157.388 2.32139C157.484 2.94319 157.566 3.57881 157.566 4.21443C157.566 4.85005 157.484 5.49949 157.388 6.10747C157.196 7.36489 156.868 8.00051 156.376 8.00051H154.364V23.7252H156.512C157.005 23.7252 157.347 24.3608 157.566 25.6182C157.675 26.24 157.744 26.8756 157.744 27.5113C157.744 28.1469 157.675 28.7963 157.566 29.4181C157.361 30.6755 157.005 31.3112 156.512 31.3112H143.912C143.419 31.3112 143.105 30.6755 142.913 29.4181C142.818 28.7963 142.735 28.1607 142.735 27.5113C142.735 26.8618 142.818 26.2262 142.913 25.6182C143.105 24.3608 143.419 23.7252 143.912 23.7252H145.704ZM124.239 28.7134V1.2436C124.239 0.621801 125.716 0.31781 128.671 0.31781C131.626 0.31781 133.104 0.621801 133.104 1.2436V22.8823H139.835C140.355 22.8823 140.724 23.5732 140.93 24.955C141.012 25.632 141.066 26.3229 141.066 27.0276C141.066 27.7323 141.025 28.4509 140.93 29.197C140.697 30.6065 140.314 31.3112 139.794 31.3112H126.318C125.675 31.3112 125.169 31.0486 124.786 30.5235C124.403 29.9985 124.211 29.3905 124.211 28.7134H124.239ZM113.54 0C115.66 0 117.548 0.303992 119.163 0.911976C120.777 1.51996 121.598 2.33521 121.598 3.35773C121.598 4.38025 121.215 5.6653 120.435 7.17144C119.669 8.6914 119.012 9.45138 118.492 9.45138C118.342 9.45138 118.178 9.36848 117.986 9.21648C117.795 9.05067 117.357 8.87103 116.673 8.6914C115.989 8.49795 115.4 8.40123 114.908 8.40123C113.212 8.40123 111.857 9.00921 110.817 10.2114C109.778 11.4135 109.258 13.2651 109.258 15.7523C109.258 18.2395 109.791 20.0911 110.858 21.2932C111.925 22.4954 113.266 23.1034 114.908 23.1034C115.578 23.1034 116.331 23.0067 117.165 22.8132C118 22.6198 118.588 22.3434 118.944 21.998C118.999 21.9427 119.122 21.915 119.3 21.915C119.477 21.915 119.806 22.2467 120.285 22.9099C120.763 23.5732 121.215 24.4437 121.625 25.5215C122.036 26.5993 122.241 27.4284 122.241 28.0225C122.241 29.1694 121.365 30.0814 119.614 30.7584C117.863 31.4355 115.797 31.7671 113.403 31.7671C109.559 31.7671 106.385 30.3992 103.908 27.6633C101.432 24.9273 100.187 21.0583 100.187 16.0701C100.187 11.0819 101.459 7.15763 104.018 4.29734C106.562 1.43705 109.75 0.0138178 113.567 0.0138178L113.54 0Z" fill="white"/>
  <path d="M262.61 61.738C262.61 60.0384 262.144 58.6428 261.2 57.5512C259.914 56.0727 258.136 55.6029 255.865 56.1418C255.769 56.1694 255.673 56.2109 255.591 56.2523C253.566 57.4821 252.554 59.3337 252.554 61.8071C252.554 63.5067 253.019 64.9023 253.963 65.9939C255.249 67.4724 257.028 67.9422 259.312 67.4033C259.408 67.3756 259.504 67.348 259.586 67.2927C261.597 66.0768 262.61 64.2252 262.61 61.738ZM257.589 72.129C255.495 72.129 253.662 71.7144 252.103 70.8716C250.529 70.0287 249.325 68.8403 248.463 67.2789C247.601 65.7175 247.177 63.9074 247.177 61.8209C247.177 59.7344 247.601 57.9104 248.463 56.3352C249.325 54.76 250.529 53.5578 252.103 52.7011C253.676 51.8444 255.495 51.4161 257.589 51.4161C259.682 51.4161 261.515 51.8306 263.075 52.6735C264.648 53.5164 265.852 54.7047 266.714 56.2661C267.576 57.8275 268 59.6377 268 61.7242C268 63.8106 267.576 65.6346 266.714 67.2098C265.852 68.7851 264.648 69.9872 263.075 70.8439C261.501 71.7006 259.682 72.129 257.589 72.129ZM240.747 61.738C240.747 59.9969 240.337 58.6013 239.516 57.5374C238.695 56.4734 237.559 55.9345 236.123 55.9345C235.124 55.9345 234.084 56.2523 233.045 56.8741C232.812 57.0123 232.662 57.2886 232.662 57.565V66.063C232.662 66.3393 232.798 66.6018 233.031 66.74C234.016 67.3342 235.042 67.6382 236.123 67.6382C237.546 67.6382 238.668 67.0855 239.502 65.9939C240.337 64.9023 240.747 63.479 240.747 61.7518V61.738ZM246.138 61.738C246.138 63.7968 245.741 65.607 244.947 67.1822C244.154 68.7574 243.005 69.9734 241.513 70.8439C240.008 71.7144 238.23 72.1428 236.164 72.1428C235.384 72.1428 234.563 71.9908 233.701 71.673C233.195 71.4795 232.662 71.8526 232.662 72.4053V80.2262C232.662 80.6546 232.32 81.0138 231.882 81.0138H228.243C227.818 81.0138 227.463 80.6684 227.463 80.2262V52.7564C227.463 52.3281 227.805 51.9688 228.243 51.9688H229.747C229.98 51.9688 230.213 52.0793 230.363 52.2728L231.17 53.3091C232.757 52.0655 234.467 51.4437 236.314 51.4437C239.338 51.4437 241.732 52.3695 243.497 54.2211C245.248 56.0727 246.124 58.5875 246.124 61.7518L246.138 61.738ZM223.947 58.4908V70.8716C223.947 71.2999 223.605 71.6592 223.167 71.6592H219.487C219.063 71.6592 218.707 71.3137 218.707 70.8716V59.5548C218.707 58.2835 218.515 57.3163 218.119 56.6668C217.735 56.0174 217.12 55.6858 216.285 55.6858C215.451 55.6858 214.739 55.8792 214.069 56.2523C213.399 56.6254 212.537 57.2057 211.497 57.9657V70.8716C211.497 71.2999 211.155 71.6592 210.717 71.6592H207.037C206.613 71.6592 206.257 71.3137 206.257 70.8716V59.5548C206.257 58.2835 206.065 57.3163 205.669 56.6668C205.286 56.0174 204.67 55.6858 203.835 55.6858C203.001 55.6858 202.289 55.8792 201.619 56.2523C201.017 56.5839 200.265 57.0952 199.334 57.7584C199.129 57.9104 199.006 58.1453 199.006 58.4079C199.006 60.2871 199.006 68.3291 199.006 70.8716C199.006 71.2999 198.664 71.6592 198.226 71.6592H194.546C194.122 71.6592 193.766 71.3137 193.766 70.8716V52.7426C193.766 52.3142 194.108 51.955 194.546 51.955H196.68C196.995 51.955 197.268 52.1484 197.392 52.4386L197.706 53.1986C197.898 53.6546 198.445 53.8066 198.855 53.544C199.813 52.9222 200.798 52.4248 201.811 52.0379C203.097 51.5543 204.218 51.3055 205.19 51.3055C207.529 51.3055 209.212 52.0102 210.211 53.4058C210.443 53.7237 210.895 53.7651 211.223 53.5578C212.222 52.9222 213.234 52.411 214.274 52.0241C215.533 51.5543 216.641 51.3193 217.612 51.3193C219.842 51.3193 221.443 51.9273 222.414 53.1295C223.399 54.3316 223.878 56.1279 223.878 58.5046L223.947 58.4908ZM181.371 62.9954C180.509 62.9954 179.825 63.2718 179.305 63.8107C178.785 64.3495 178.525 64.999 178.525 65.759C178.525 66.3531 178.758 66.8644 179.223 67.3066C179.688 67.7349 180.29 67.956 181.015 67.956C182.465 67.956 183.82 67.3895 185.065 66.2564C185.229 66.1044 185.325 65.8833 185.325 65.6622V63.7968C185.325 63.3685 184.983 63.0092 184.545 63.0092H181.385L181.371 62.9954ZM182.137 56.2938C181.248 56.2938 180.276 56.4181 179.196 56.6807C178.457 56.8603 177.787 57.0537 177.198 57.2886C176.788 57.4406 176.336 57.2196 176.199 56.7912L175.242 53.8204C175.119 53.4473 175.297 53.0328 175.652 52.8669C176.336 52.5353 177.239 52.2451 178.388 51.9688C179.921 51.6095 181.138 51.4161 182.055 51.4161C183.615 51.4161 185.038 51.7339 186.324 52.3557C187.61 52.9775 188.636 53.848 189.402 54.9534C190.168 56.0589 190.551 57.3025 190.551 58.6842V70.8577C190.551 71.2861 190.209 71.6453 189.771 71.6453H187.651C187.336 71.6453 187.062 71.4519 186.939 71.1617L186.255 69.5312C184.613 71.2585 182.903 72.129 181.111 72.129C178.772 72.129 177.02 71.5486 175.844 70.4017C174.667 69.2549 174.079 67.7073 174.079 65.7451C174.079 63.783 174.749 62.194 176.09 61.0885C177.431 59.9831 179.223 59.4442 181.48 59.4442H185.297C185.27 58.4355 184.983 57.6617 184.436 57.109C183.888 56.5563 183.136 56.2799 182.164 56.2799L182.137 56.2938ZM165.255 43.457C166.226 43.457 167.403 43.609 168.798 43.8992C169.92 44.1341 170.932 44.4795 171.849 44.9079C172.218 45.0875 172.369 45.5435 172.205 45.9304L170.891 49.0256L169.892 48.7354C168.853 48.4176 168.018 48.1827 167.403 48.0583C166.787 47.934 166.021 47.8787 165.118 47.8787C163.668 47.8787 162.368 48.2794 161.219 49.0947C160.069 49.9099 159.166 51.0706 158.51 52.5906C157.853 54.1105 157.525 55.8792 157.525 57.9104C157.525 59.7206 157.812 61.3787 158.387 62.8849C158.961 64.391 159.796 65.5793 160.904 66.4637C161.998 67.348 163.298 67.7902 164.803 67.7902C166.568 67.7902 168.36 67.4586 170.152 66.7815C170.522 66.6433 170.932 66.7815 171.11 67.1407L172.287 69.4621C172.601 70.0978 172.451 70.5952 172.054 70.761C171.192 71.1479 170.18 71.4657 169.044 71.7144C167.58 72.0323 166.267 72.1981 165.077 72.1981C162.313 72.1981 159.96 71.5763 158.004 70.3327C156.047 69.0891 154.57 67.3895 153.585 65.2339C152.586 63.0783 152.093 60.6464 152.093 57.9381C152.093 55.2298 152.641 52.6182 153.721 50.4212C154.802 48.2242 156.348 46.5108 158.346 45.281C160.343 44.0512 162.655 43.4294 165.282 43.4294L165.255 43.457ZM136.196 61.738C136.196 60.0384 135.731 58.6428 134.787 57.5512C133.501 56.0727 131.722 55.6029 129.437 56.1418C129.342 56.1694 129.246 56.197 129.164 56.2523C127.153 57.4821 126.14 59.3337 126.14 61.8071C126.14 63.5067 126.605 64.9023 127.549 65.9939C128.835 67.4724 130.614 67.9422 132.885 67.4033C132.981 67.3756 133.077 67.3342 133.159 67.2927C135.183 66.0768 136.196 64.2252 136.196 61.738ZM131.175 72.129C129.082 72.129 127.248 71.7144 125.689 70.8716C124.115 70.0287 122.911 68.8403 122.05 67.2789C121.188 65.7175 120.763 63.9074 120.763 61.8209C120.763 59.7344 121.188 57.9104 122.05 56.3352C122.911 54.76 124.115 53.5578 125.689 52.7011C127.262 51.8444 129.082 51.4161 131.175 51.4161C133.268 51.4161 135.101 51.8306 136.661 52.6735C138.234 53.5164 139.438 54.7047 140.3 56.2661C141.162 57.8275 141.586 59.6377 141.586 61.7242C141.586 63.8106 141.162 65.6346 140.3 67.2098C139.438 68.7851 138.234 69.9872 136.661 70.8439C135.088 71.7006 133.268 72.129 131.175 72.129ZM110.639 55.672C109.723 55.672 108.875 55.8792 108.067 56.3076C107.356 56.6807 106.59 57.1643 105.755 57.7446C105.55 57.8966 105.413 58.1315 105.413 58.3941C105.413 60.2871 105.413 68.3014 105.413 70.8577C105.413 71.2861 105.071 71.6453 104.633 71.6453H100.953C100.529 71.6453 100.173 71.2999 100.173 70.8577V52.7288C100.173 52.3004 100.515 51.9412 100.953 51.9412H103.087C103.402 51.9412 103.676 52.1346 103.799 52.4248L104.114 53.1848C104.305 53.6407 104.839 53.7927 105.249 53.5302C106.22 52.9084 107.26 52.411 108.327 52.0241C109.695 51.5404 110.913 51.2917 111.994 51.2917C114.456 51.2917 116.194 51.9964 117.179 53.4058C118.164 54.8153 118.67 56.7774 118.67 59.2922V70.8577C118.67 71.2861 118.328 71.6453 117.89 71.6453H114.21C113.786 71.6453 113.43 71.2999 113.43 70.8577V59.5409C113.43 58.325 113.184 57.3715 112.692 56.6945C112.199 56.0174 111.501 55.672 110.626 55.672H110.639Z" fill="white"/>
  <path d="M81.7175 49.6888C84.0433 46.3449 85.3293 42.241 85.3293 38.1095C85.3293 30.2196 80.7461 23.0067 73.6593 19.7318L73.2625 19.5522L73.1805 19.11C71.4019 9.42375 63.0154 2.4043 53.247 2.4043C49.9088 2.4043 46.7211 3.20573 43.766 4.76714L43.3008 5.01587L42.8767 4.69806C39.1007 1.89304 34.627 0.414534 29.9344 0.414534C17.8949 0.414534 8.08557 10.3219 8.08557 22.4954C8.08557 23.3521 8.14029 24.2226 8.23606 25.0931L8.29078 25.6182L7.85299 25.9084C2.92777 29.2109 -0.0136719 34.7656 -0.0136719 40.7487C-0.0136719 41.3429 0.0136904 41.9509 0.068415 42.5312C0.259951 44.521 0.793516 46.4555 1.61438 48.2656C2.42157 50.0343 3.51606 51.6372 4.84314 53.0466C6.17021 54.456 7.7025 55.6305 9.39896 56.5287C11.2322 57.5097 13.3118 58.1592 15.5555 58.4632C16.691 58.6152 17.7718 58.629 19.0715 58.629H21.6709C23.2032 58.629 24.4619 57.3716 24.4619 55.8101C24.4619 54.2487 23.2169 52.9913 21.6709 52.9913H18.9347C17.9497 52.9913 17.1151 52.9913 16.2943 52.8808C14.6936 52.6597 13.2434 52.2175 11.9984 51.5543C10.8355 50.9325 9.78203 50.131 8.87907 49.1638C7.96244 48.1965 7.22366 47.0911 6.67641 45.8889C6.1018 44.6592 5.74609 43.3465 5.60928 41.9785C5.56824 41.5778 5.55456 41.1633 5.55456 40.7487C5.55456 36.0092 8.30447 31.6566 12.573 29.6668C13.7769 29.1003 14.4336 27.7462 14.119 26.4335C13.8043 25.1761 13.6538 23.8495 13.6538 22.4954C13.6538 13.4309 20.9595 6.0522 29.9344 6.0522C34.1345 6.0522 38.102 7.65507 41.1255 10.5568C42.0695 11.455 43.6155 11.5655 44.669 10.8055C47.1726 8.9954 50.1414 8.02815 53.2334 8.02815C60.8948 8.02815 67.3386 14.0665 67.8995 21.7769C67.9816 22.9237 68.7341 23.9048 69.8149 24.2641C75.7662 26.2262 79.7611 31.7948 79.7611 38.1233C79.7611 41.0942 78.8308 44.065 77.148 46.4693C75.4242 48.9427 72.8932 50.9325 70.0064 52.0379C67.9269 52.8255 65.6832 52.9637 63.59 52.9913C62.8375 52.9913 62.1535 53.2953 61.6199 53.848C61.1137 54.3869 60.8264 55.0916 60.8401 55.8516C60.8674 57.3854 62.1398 58.629 63.6857 58.629C66.2988 58.5875 69.1172 58.4079 71.9902 57.3025C75.9167 55.7963 79.3643 53.1018 81.7312 49.7027L81.7175 49.6888Z" fill="white"/>
  <path d="M50.3193 71.7697C51.8516 71.7697 53.1102 70.5123 53.1102 68.9509V49.9652L54.5741 51.5128C55.8054 52.7426 57.5429 52.6597 58.5827 51.5957C59.1162 51.0568 59.4035 50.3521 59.4035 49.6059C59.4035 48.8598 59.1299 48.1551 58.5964 47.6162L52.4946 41.4534C51.4411 40.1269 49.2248 40.1269 48.1713 41.4534L42.0695 47.6162C40.9887 48.7078 40.9887 50.4903 42.0695 51.5957C43.123 52.6597 44.9563 52.6597 46.0097 51.5957L47.4599 50.131L47.5557 52.0931V68.9371C47.5557 70.4847 48.8007 71.7559 50.3329 71.7559L50.3193 71.7697Z" fill="white"/>
  <path d="M34.4765 40.4171C32.9442 40.4171 31.6855 41.6745 31.6855 43.2359V62.1525L30.1533 60.6187C29.0998 59.5548 27.2665 59.5548 26.2131 60.6187C25.6932 61.1438 25.4059 61.8485 25.4059 62.6085C25.4059 63.3685 25.6932 64.0732 26.2131 64.5983L32.9032 71.2723L33.3273 71.521L33.9019 71.7144L34.3807 71.7835H34.4902C34.668 71.7835 34.8459 71.7559 35.0237 71.7144L35.8173 71.4104C35.8173 71.4104 35.9404 71.3414 36.0362 71.2861L36.3782 71.0236L42.7536 64.5845C43.2872 64.0456 43.5745 63.3408 43.5745 62.5947C43.5745 61.8485 43.2872 61.1438 42.7536 60.6049C41.7001 59.5409 39.8532 59.5409 38.8134 60.6049L37.3632 62.0696L37.2675 60.0937V43.2221C37.2675 41.6745 36.0225 40.4033 34.4902 40.4033L34.4765 40.4171Z" fill="white"/>
  <path d="M225.246 4.46315C225.246 3.67554 225.438 2.92938 225.835 2.23849C226.231 1.54759 226.765 1.0087 227.449 0.607984C228.133 0.207267 228.872 0.0138178 229.665 0.0138178C230.459 0.0138178 231.184 0.207267 231.868 0.607984C232.552 1.0087 233.099 1.54759 233.482 2.23849C233.879 2.92938 234.071 3.67554 234.071 4.47697C234.071 5.2784 233.879 5.98311 233.496 6.674C233.113 7.35108 232.58 7.90379 231.895 8.31832C231.211 8.73286 230.459 8.94012 229.652 8.94012C228.845 8.94012 228.092 8.73286 227.408 8.33214C226.724 7.91761 226.19 7.37871 225.807 6.68782C225.424 5.99693 225.233 5.26459 225.233 4.49079L225.246 4.46315ZM225.862 4.46315C225.862 5.14023 226.026 5.78966 226.368 6.38383C226.71 6.97799 227.175 7.4478 227.764 7.79325C228.352 8.13869 228.981 8.3045 229.652 8.3045C230.322 8.3045 230.965 8.13869 231.553 7.79325C232.142 7.4478 232.593 6.97799 232.935 6.39765C233.277 5.8173 233.455 5.16786 233.455 4.47697C233.455 3.78608 233.291 3.15046 232.949 2.5563C232.607 1.96213 232.142 1.50614 231.567 1.1607C230.992 0.815251 230.349 0.635619 229.665 0.635619C228.981 0.635619 228.352 0.801433 227.764 1.14688C227.175 1.49232 226.724 1.96213 226.382 2.54248C226.04 3.12283 225.862 3.77226 225.862 4.46315ZM231.444 3.38536C231.444 3.70317 231.362 3.97953 231.198 4.22825C231.034 4.47697 230.801 4.6566 230.5 4.76714L231.895 7.10235H230.91L229.693 5.00205H228.899V7.10235H228.024V1.82395H229.556C230.199 1.82395 230.678 1.94831 230.979 2.21085C231.28 2.47339 231.43 2.86029 231.43 3.38536H231.444ZM228.899 4.28352H229.529C229.843 4.28352 230.09 4.20061 230.281 4.0348C230.473 3.86899 230.568 3.66172 230.568 3.413C230.568 3.12283 230.486 2.90174 230.322 2.77738C230.158 2.65302 229.884 2.58393 229.529 2.58393H228.913V4.28352H228.899Z" fill="white"/>
</svg>