<svg xmlns="http://www.w3.org/2000/svg" width="26" height="18" viewBox="0 0 26 18" fill="none">
  <path d="M26 2C26 0.895431 25.1046 0 24 0H2C0.895431 0 0 0.89543 0 2V16C0 17.1046 0.89543 18 2 18H24C25.1046 18 26 17.1046 26 16V2Z" fill="#4CAE4F"/>
  <path fill-rule="evenodd" clip-rule="evenodd" d="M2.4216 8.98308L13 16.1944L23.5895 9.01693L13.0111 1.80565L2.4216 8.98308Z" fill="#FFC11B"/>
  <path fill-rule="evenodd" clip-rule="evenodd" d="M8.94928 8.30032C8.66113 9.06207 9.07673 10.6646 9.63641 11.432C11.3708 13.7906 14.5294 13.7285 16.1973 11.6577C16.3802 11.432 16.8512 10.721 16.8955 10.326C16.5963 10.0213 15.7929 9.56427 15.3385 9.33856C14.7677 9.05643 14.1692 8.81944 13.5153 8.63323C11.997 8.21004 10.5895 8.15361 8.94928 8.30032Z" fill="#3F51B3"/>
  <path fill-rule="evenodd" clip-rule="evenodd" d="M9.35933 7.03637C9.71398 7.05329 10.1517 7.00251 10.5285 7.00251C10.9109 7.00251 11.2988 7.02508 11.6756 7.05893C13.3159 7.21693 14.945 7.69091 16.3525 8.50909C16.5908 8.64452 16.9011 8.87586 17.1228 8.97743C17.1006 4.99937 12.13 3.26144 9.7029 6.48339C9.55328 6.68088 9.48678 6.83887 9.35379 7.03637" fill="#3F51B3"/>
  <path fill-rule="evenodd" clip-rule="evenodd" d="M9.35933 7.03637C9.18755 7.42006 8.99916 7.81503 8.95483 8.3003C10.5951 8.15359 12.0026 8.21566 13.5209 8.63321C14.1748 8.81378 14.7733 9.05077 15.344 9.33854C15.7984 9.56425 16.6019 10.0213 16.9011 10.326C17.084 10.0495 17.1449 9.36111 17.1283 8.97741C16.9067 8.87585 16.5963 8.6445 16.3581 8.50908C14.9506 7.69089 13.3159 7.22255 11.6812 7.05892C11.3044 7.01942 10.922 7.00249 10.5341 7.00249C10.1573 7.00249 9.71399 7.05328 9.36488 7.03635" fill="#F6F8FC"/>
</svg>