<svg xmlns="http://www.w3.org/2000/svg" width="111" height="18" viewBox="0 0 111 18" fill="none">
  <path fill-rule="evenodd" clip-rule="evenodd" d="M9.37059 6.59411C10.4351 5.5925 11.6981 4.76894 13.8601 4.99153C15.1121 5.11951 16.2979 5.95419 16.8715 6.87234C17.5719 7.99081 17.605 9.57114 17.5774 11.3017C17.5774 13.4441 17.583 15.809 17.583 17.8122H15.0459C15.0459 16.065 15.0294 13.4441 15.0294 11.3907C15.0294 10.8343 15.0569 10.3112 15.0073 9.85493C14.8694 8.58622 13.9649 7.54009 12.5419 7.53452C10.6171 7.52339 10.0876 8.97017 9.98282 10.9901C9.98282 13.1658 10.0214 15.8257 10.0214 17.8122H7.50091C7.50091 15.6866 7.534 13.2326 7.534 11.0791C7.534 10.6952 7.534 10.3168 7.50091 9.96622C7.33545 8.18001 5.48228 6.8 3.66773 7.92404C3.41402 8.07985 3.13826 8.34138 2.98383 8.60848C2.51502 9.20388 2.57018 10.2166 2.54261 11.324C2.52606 11.9862 2.5757 16.5825 2.5757 17.8122H0V9.08146C0 6.80557 2.17305 5.20854 4.2744 4.99153C6.56879 4.75225 8.20688 5.50346 9.3651 6.59411" fill="white"/>
  <path fill-rule="evenodd" clip-rule="evenodd" d="M25.0342 7.42323C23.6774 7.60686 22.9715 8.75872 22.8998 10.2945H28.1559C28.0897 8.40816 26.9811 7.1617 25.0342 7.42323ZM30.7316 12.4536H22.8998C22.5468 15.8368 26.9701 16.3877 28.6523 14.39C29.2921 14.8908 29.9594 15.3527 30.4613 15.9926C28.8178 18.3742 24.0359 18.5523 22.0283 16.5992C20.4399 15.0578 20.0042 12.0696 20.4951 9.52663C21.0025 6.88347 22.806 4.74669 26.0821 4.99709C29.5458 5.26419 31.1177 8.23565 30.7371 12.4591L30.7316 12.4536Z" fill="white"/>
  <path fill-rule="evenodd" clip-rule="evenodd" d="M36.0318 1.26326V5.07497H37.885C37.885 5.64812 37.8905 6.4049 37.8905 7.06708H36.0318C36.0318 8.19112 36.0318 9.69354 36.0318 11.2349C36.0318 11.9973 36.0263 12.7596 36.0263 13.4774C36.0263 14.1507 35.9436 15.0021 36.3683 15.2859C36.6882 15.4974 37.3776 15.4306 37.8905 15.4306V17.7844C35.3976 17.9903 33.6547 17.278 33.5113 15.2414C33.4231 14.0061 33.4893 12.6038 33.4893 11.1681C33.5499 9.76032 33.5113 8.39144 33.5113 7.06152H32.1987C32.1987 6.39377 32.1987 5.63143 32.1987 5.07497H33.5113C33.5113 3.92868 33.5058 2.42069 33.5058 1.26326C34.3276 1.26326 35.2156 1.26326 36.0374 1.26326" fill="white"/>
  <path fill-rule="evenodd" clip-rule="evenodd" d="M44.3159 7.42321C42.9647 7.61241 42.2642 8.7587 42.1815 10.2945H47.4928C47.4045 8.41927 46.2904 7.14499 44.3159 7.42321ZM42.1815 12.4536C41.9443 15.8257 46.2132 16.4155 47.934 14.39C48.5738 14.8853 49.2522 15.3471 49.743 15.9926C48.6124 17.1834 47.3108 17.9791 45.1984 17.9791C41.4755 17.9791 39.6389 15.3916 39.6113 11.5688C39.5893 7.99636 41.2714 4.59643 45.4742 4.99151C48.844 5.30869 50.4214 8.25789 50.0188 12.4536H42.1815Z" fill="white"/>
  <path fill-rule="evenodd" clip-rule="evenodd" d="M54.8282 9.08147C54.3814 10.1888 54.398 12.9321 54.8833 14.0005C55.5617 15.4974 57.7899 15.8813 58.9923 14.8296C59.9575 13.9894 60.2718 10.6228 59.6486 9.08147C59.3011 8.2134 58.2477 7.46775 56.9682 7.59017C55.7548 7.70703 55.1481 8.30243 54.8337 9.08147M56.4773 5.04718C59.1412 4.73556 61.1322 6.08775 61.8989 7.80719C62.5938 9.3597 62.671 13.7 61.8437 15.2692C59.8471 19.0531 54.0174 18.6636 52.5338 15.0467C51.6789 12.96 51.9381 9.18163 52.6441 7.6959C53.3004 6.3159 54.6682 5.25307 56.4773 5.04161V5.04718Z" fill="white"/>
  <path fill-rule="evenodd" clip-rule="evenodd" d="M68.578 7.97412C67.3426 8.93678 67.3039 13.2604 68.1974 14.6071C69.0689 15.9203 71.5673 15.5308 72.1961 14.3288C72.6649 13.4385 72.6759 11.5354 72.5766 10.2389C72.4443 8.39146 71.7052 7.41767 69.841 7.5846C69.2564 7.63468 68.9034 7.72371 68.5835 7.96855M65.0812 0.0112611H67.6514V6.36597C68.1919 6.04879 68.6 5.58137 69.1847 5.31427C71.6114 4.20136 74.3581 5.79838 74.9372 7.80162C75.4005 9.39308 75.3453 14.212 74.6614 15.425C74.5401 15.6365 74.3801 15.898 74.2202 16.0872C72.2016 18.5801 67.3591 18.5467 65.6769 15.6977C64.7172 14.0729 65.0757 10.7063 65.0757 8.23565V0.167069C65.0757 0.167069 65.0757 -0.00543275 65.0757 0.000131788L65.0812 0.0112611Z" fill="white"/>
  <path fill-rule="evenodd" clip-rule="evenodd" d="M77.943 0.0168085H80.5132C80.5132 3.48352 80.5022 7.65692 80.5022 11.5632C80.5022 12.2477 80.5022 13.7 80.5022 14.5681C80.5022 14.8853 80.6015 15.119 80.7007 15.2136C81.0592 15.5419 81.9031 15.3805 82.3167 15.4362V17.8122C81.8038 17.8567 81.3074 17.8623 80.8441 17.8233C79.1785 17.6842 78.2023 17.0999 77.921 15.2692C77.9155 15.2191 77.91 15.1691 77.91 15.119C77.91 12.9655 77.932 10.2556 77.932 7.70144V1.51367C77.932 1.06294 77.932 -0.0889177 77.932 0.0223732" fill="white"/>
  <path fill-rule="evenodd" clip-rule="evenodd" d="M84.4016 5.10281H86.8669C86.8669 7.21177 86.8669 10.1498 86.8669 12.32C86.8669 12.704 86.8779 13.0601 86.9165 13.3828C86.9827 13.9504 87.2475 14.2843 87.4405 14.5458C87.7053 14.8964 87.8707 15.0355 88.2843 15.2136C88.9903 15.5252 89.8176 15.4807 90.3636 15.2692C91.3013 14.902 91.8528 13.9449 91.8528 12.6984C91.8583 12.6316 91.8693 12.5649 91.8748 12.4981C91.8748 10.2667 91.8473 7.19508 91.8473 5.10837C92.5919 5.10837 93.5625 5.10837 94.4229 5.10837C94.3568 6.10443 94.4229 7.15056 94.4229 8.20226C94.4229 10.2444 94.4229 12.2644 94.4229 14.0617C94.4229 15.4195 92.8511 17.3281 90.7332 17.8512C88.6925 18.3575 86.1223 17.5396 85.0027 15.8869C84.6663 15.3861 84.3133 14.7962 84.3133 14.045C84.3133 11.6078 84.3464 7.94629 84.3464 5.1195C84.3464 5.10281 84.3354 5.1195 84.4016 5.10837" fill="white"/>
  <path fill-rule="evenodd" clip-rule="evenodd" d="M101.725 7.42879C100.374 7.61799 99.6736 8.76428 99.5908 10.3057H104.902C104.814 8.43041 103.7 7.15613 101.725 7.42879ZM107.406 12.4536H99.5743C99.293 15.809 103.617 16.41 105.327 14.39C106 14.8185 106.535 15.3861 107.136 15.8813C106.143 17.189 104.709 17.968 102.646 17.9792C99.271 18.0014 97.2965 15.7645 97.0593 12.5092C96.767 8.46936 98.3609 4.602 102.812 4.99709C106.226 5.29757 107.82 8.22452 107.412 12.4591L107.406 12.4536Z" fill="white"/>
  <path fill-rule="evenodd" clip-rule="evenodd" d="M108.145 3.06064C108.162 4.32936 109.298 4.66879 110.048 4.19581C110.451 3.93984 110.677 3.45572 110.583 2.83806C110.478 2.14249 109.86 1.71402 109.05 1.86983C108.57 1.96443 108.134 2.4708 108.145 3.05508M109.397 1.46918C110.059 1.46918 110.704 1.84201 110.958 2.55983C111.107 3.43903 110.842 3.96766 110.445 4.32936C109.491 5.19186 107.737 4.59645 107.698 3.16637C107.665 2.09241 108.537 1.46918 109.403 1.46918H109.397Z" fill="white"/>
  <path fill-rule="evenodd" clip-rule="evenodd" d="M109.154 2.58764C109.066 2.67667 109.105 2.78796 109.105 2.99941C109.386 3.00498 109.7 3.04393 109.651 2.72119C109.535 2.55425 109.281 2.49304 109.154 2.58207M109.712 2.29272C110.048 2.40957 110.263 2.83804 109.761 3.10514C109.993 3.27764 110.076 3.60038 110.142 3.93426H109.706C109.645 3.71724 109.618 3.46683 109.485 3.32772H109.11C109.11 3.50579 109.138 3.75063 109.105 3.93426H108.719V2.29272C109.215 2.20925 109.419 2.23151 109.706 2.29272H109.712Z" fill="white"/>
</svg>