<svg xmlns="http://www.w3.org/2000/svg" width="280" height="45" viewBox="0 0 280 45" fill="none">
  <path fill-rule="evenodd" clip-rule="evenodd" d="M23.6375 16.4853C26.3227 13.9812 29.5087 11.9224 34.9624 12.4788C38.1206 12.7988 41.1118 14.8855 42.5587 17.1809C44.3256 19.977 44.4091 23.9279 44.3395 28.2543C44.3395 33.6102 44.3534 39.5225 44.3534 44.5306H37.9537C37.9537 40.1624 37.9119 33.6102 37.9119 28.4769C37.9119 27.0857 37.9815 25.7781 37.8563 24.6373C37.5084 21.4655 35.2267 18.8502 31.6373 18.8363C26.7818 18.8085 25.4462 22.4254 25.1819 27.4753C25.1819 32.9146 25.2793 39.5642 25.2793 44.5306H18.9212C18.9212 39.2164 19.0047 33.0815 19.0047 27.6978C19.0047 26.7379 19.0047 25.792 18.9212 24.9156C18.5038 20.45 13.8292 17 9.25192 19.8101C8.61194 20.1996 7.91633 20.8535 7.52677 21.5212C6.3442 23.0097 6.48334 25.5416 6.41378 28.3099C6.37204 29.9654 6.49725 41.4562 6.49725 44.5306H0V22.7037C0 17.0139 5.48157 13.0214 10.7823 12.4788C16.5699 11.8806 20.702 13.7587 23.6237 16.4853" fill="white"/>
  <path fill-rule="evenodd" clip-rule="evenodd" d="M63.1493 18.5581C59.7268 19.0172 57.946 21.8968 57.7652 25.7363H71.0238C70.8569 21.0204 68.0605 17.9042 63.1493 18.5581ZM77.5211 31.1339H57.7652C56.8748 39.592 68.0327 40.9693 72.276 35.9751C73.8899 37.2271 75.5734 38.3818 76.8394 39.9816C72.6934 45.9356 60.6311 46.3808 55.567 41.4979C51.5601 37.6445 50.4611 30.1741 51.6993 23.8166C52.9793 17.2087 57.5287 11.8667 65.7928 12.4927C74.5299 13.1605 78.495 20.5891 77.535 31.1479L77.5211 31.1339Z" fill="white"/>
  <path fill-rule="evenodd" clip-rule="evenodd" d="M90.8911 3.15816V12.6874H95.5658C95.5658 14.1203 95.5797 16.0122 95.5797 17.6677H90.8911C90.8911 20.4778 90.8911 24.2339 90.8911 28.0873C90.8911 29.9932 90.8772 31.899 90.8772 33.6936C90.8772 35.3769 90.6685 37.5053 91.7398 38.2148C92.5467 38.7434 94.2858 38.5765 95.5797 38.5765V44.461C89.2912 44.9757 84.8948 43.195 84.5331 38.1035C84.3105 35.0152 84.4774 31.5095 84.4774 27.9204C84.6305 24.4008 84.5331 20.9786 84.5331 17.6538H81.2219C81.2219 15.9844 81.2219 14.0786 81.2219 12.6874H84.5331C84.5331 9.82169 84.5191 6.05172 84.5191 3.15816C86.5921 3.15816 88.8321 3.15816 90.9051 3.15816" fill="white"/>
  <path fill-rule="evenodd" clip-rule="evenodd" d="M111.788 18.558C108.379 19.031 106.612 21.8968 106.404 25.7363H119.802C119.579 21.0482 116.769 17.8625 111.788 18.558ZM106.404 31.1339C105.806 39.5642 116.574 41.0388 120.915 35.975C122.528 37.2132 124.24 38.3678 125.478 39.9815C122.626 42.9585 119.342 44.9479 114.014 44.9479C104.623 44.9479 99.99 38.4791 99.9204 28.922C99.8648 19.9909 104.108 11.4911 114.71 12.4788C123.21 13.2717 127.189 20.6447 126.174 31.1339H106.404Z" fill="white"/>
  <path fill-rule="evenodd" clip-rule="evenodd" d="M138.305 22.7037C137.178 25.472 137.22 32.3303 138.444 35.0013C140.156 38.7435 145.776 39.7034 148.809 37.0741C151.244 34.9735 152.037 26.5571 150.465 22.7037C149.588 20.5335 146.931 18.6694 143.703 18.9754C140.643 19.2676 139.112 20.7561 138.319 22.7037M142.465 12.6179C149.185 11.8389 154.207 15.2194 156.141 19.518C157.894 23.3992 158.089 34.2501 156.002 38.1731C150.966 47.6328 136.26 46.659 132.518 37.6166C130.361 32.3999 131.015 22.9541 132.796 19.2398C134.452 15.7897 137.902 13.1327 142.465 12.604V12.6179Z" fill="white"/>
  <path fill-rule="evenodd" clip-rule="evenodd" d="M172.99 19.9353C169.873 22.342 169.776 33.1511 172.03 36.5176C174.228 39.8007 180.53 38.8269 182.116 35.8221C183.299 33.5962 183.327 28.8386 183.076 25.5972C182.742 20.9787 180.878 18.5442 176.175 18.9615C174.701 19.0867 173.81 19.3093 173.003 19.9214M164.169 0.0281528H170.652V15.9149C172.016 15.122 173.045 13.9534 174.52 13.2857C180.641 10.5034 187.57 14.496 189.031 19.504C190.199 23.4827 190.06 35.5299 188.335 38.5626C188.029 39.0912 187.626 39.7451 187.222 40.218C182.13 46.4503 169.915 46.3669 165.671 39.2443C163.251 35.1821 164.155 26.7658 164.155 20.5891V0.417672C164.155 0.417672 164.155 -0.0135819 164.155 0.000329469L164.169 0.0281528Z" fill="white"/>
  <path fill-rule="evenodd" clip-rule="evenodd" d="M196.613 0.0420212H203.096C203.096 8.70879 203.069 19.1423 203.069 28.9081C203.069 30.6192 203.069 34.25 203.069 36.4202C203.069 37.2132 203.319 37.7974 203.569 38.0339C204.474 38.8547 206.602 38.4513 207.646 38.5904V44.5305C206.352 44.6418 205.1 44.6557 203.931 44.5583C199.73 44.2106 197.267 42.7499 196.557 38.173C196.544 38.0478 196.53 37.9226 196.53 37.7974C196.53 32.4137 196.585 25.6389 196.585 19.2536V3.78418C196.585 2.65736 196.585 -0.222294 196.585 0.0559329" fill="white"/>
  <path fill-rule="evenodd" clip-rule="evenodd" d="M212.905 12.757H219.124C219.124 18.0294 219.124 25.3746 219.124 30.8C219.124 31.7599 219.152 32.6503 219.249 33.4571C219.416 34.8761 220.084 35.7108 220.571 36.3646C221.238 37.241 221.656 37.5888 222.699 38.034C224.48 38.813 226.567 38.7017 227.944 38.1731C230.309 37.2549 231.701 34.8622 231.701 31.746C231.715 31.5791 231.742 31.4121 231.756 31.2452C231.756 25.6668 231.687 17.9877 231.687 12.7709C233.565 12.7709 236.014 12.7709 238.184 12.7709C238.017 15.2611 238.184 17.8764 238.184 20.5056C238.184 25.6111 238.184 30.6609 238.184 35.1543C238.184 38.5487 234.219 43.3203 228.876 44.6279C223.729 45.8939 217.245 43.8489 214.421 39.7172C213.573 38.4652 212.682 36.9906 212.682 35.1126C212.682 29.0194 212.766 19.8657 212.766 12.7988C212.766 12.757 212.738 12.7988 212.905 12.7709" fill="white"/>
  <path fill-rule="evenodd" clip-rule="evenodd" d="M256.604 18.572C253.196 19.045 251.429 21.9107 251.22 25.7641H264.618C264.395 21.076 261.585 17.8903 256.604 18.572ZM270.934 31.1339H251.178C250.469 39.5225 261.376 41.0249 265.689 35.9751C267.387 37.0462 268.736 38.4652 270.253 39.7033C267.748 42.9725 264.131 44.9201 258.928 44.9479C250.413 45.0035 245.433 39.4112 244.834 31.273C244.097 21.1734 248.118 11.505 259.345 12.4927C267.957 13.2439 271.978 20.5613 270.948 31.1478L270.934 31.1339Z" fill="white"/>
  <path fill-rule="evenodd" clip-rule="evenodd" d="M272.799 7.6516C272.84 10.8234 275.706 11.672 277.598 10.4895C278.614 9.8496 279.184 8.63931 278.948 7.09515C278.684 5.35623 277.125 4.28506 275.08 4.67457C273.87 4.91107 272.771 6.177 272.799 7.63769M275.957 3.67296C277.626 3.67296 279.254 4.60502 279.894 6.39958C280.27 8.59757 279.602 9.91915 278.6 10.8234C276.193 12.9796 271.769 11.4911 271.672 7.91592C271.588 5.23103 273.786 3.67296 275.971 3.67296H275.957Z" fill="white"/>
  <path fill-rule="evenodd" clip-rule="evenodd" d="M275.345 6.46909C275.122 6.69168 275.219 6.9699 275.219 7.49853C275.929 7.51244 276.722 7.60982 276.597 6.80297C276.305 6.38563 275.665 6.2326 275.345 6.45518M276.75 5.73179C277.598 6.02393 278.141 7.0951 276.875 7.76285C277.459 8.1941 277.668 9.00096 277.835 9.83564H276.736C276.583 9.2931 276.513 8.66709 276.179 8.3193H275.233C275.233 8.76447 275.303 9.37656 275.219 9.83564H274.245V5.73179C275.498 5.52312 276.012 5.57877 276.736 5.73179H276.75Z" fill="white"/>
</svg>