<svg xmlns="http://www.w3.org/2000/svg" width="48" height="48" viewBox="0 0 48 48" fill="none">
  <path d="M40.9401 4.00004H7.06012C6.67927 3.99475 6.30112 4.06453 5.94725 4.2054C5.59338 4.34628 5.27072 4.55548 4.99771 4.82106C4.7247 5.08664 4.50668 5.4034 4.3561 5.75325C4.20552 6.10311 4.12533 6.47919 4.12012 6.86004V41.14C4.12533 41.5209 4.20552 41.897 4.3561 42.2468C4.50668 42.5967 4.7247 42.9134 4.99771 43.179C5.27072 43.4446 5.59338 43.6538 5.94725 43.7947C6.30112 43.9355 6.67927 44.0053 7.06012 44H40.9401C41.321 44.0053 41.6991 43.9355 42.053 43.7947C42.4069 43.6538 42.7295 43.4446 43.0025 43.179C43.2755 42.9134 43.4936 42.5967 43.6441 42.2468C43.7947 41.897 43.8749 41.5209 43.8801 41.14V6.86004C43.8749 6.47919 43.7947 6.10311 43.6441 5.75325C43.4936 5.4034 43.2755 5.08664 43.0025 4.82106C42.7295 4.55548 42.4069 4.34628 42.053 4.2054C41.6991 4.06453 41.321 3.99475 40.9401 4.00004ZM16.1801 37.48H10.1801V19.48H16.1801V37.48ZM13.1801 16.96C12.3526 16.96 11.5591 16.6313 10.9739 16.0462C10.3888 15.4611 10.0601 14.6675 10.0601 13.84C10.0601 13.0126 10.3888 12.219 10.9739 11.6339C11.5591 11.0487 12.3526 10.72 13.1801 10.72C13.6195 10.6702 14.0645 10.7137 14.4859 10.8478C14.9073 10.9819 15.2956 11.2034 15.6254 11.498C15.9553 11.7925 16.2192 12.1534 16.3999 12.557C16.5806 12.9606 16.674 13.3978 16.674 13.84C16.674 14.2822 16.5806 14.7195 16.3999 15.1231C16.2192 15.5267 15.9553 15.8876 15.6254 16.1821C15.2956 16.4767 14.9073 16.6982 14.4859 16.8323C14.0645 16.9663 13.6195 17.0099 13.1801 16.96ZM37.8201 37.48H31.8201V27.82C31.8201 25.4 30.9601 23.82 28.7801 23.82C28.1054 23.825 27.4485 24.0366 26.8978 24.4264C26.3471 24.8162 25.9291 25.3654 25.7001 26C25.5436 26.4701 25.4758 26.9652 25.5001 27.46V37.46H19.5001C19.5001 37.46 19.5001 21.1 19.5001 19.46H25.5001V22C26.0452 21.0542 26.8379 20.2751 27.793 19.7464C28.7481 19.2178 29.8293 18.9597 30.9201 19C34.9201 19 37.8201 21.58 37.8201 27.12V37.48Z" fill="#00AE42"/>
</svg>