<svg xmlns="http://www.w3.org/2000/svg" width="193" height="54" viewBox="0 0 193 54" fill="none">
  <path d="M161.984 6.34686C160.951 6.34686 160.091 6.8327 159.392 7.79403C158.694 8.75536 158.349 10.1095 158.349 11.8564C158.349 13.6034 158.684 14.9368 159.352 15.8671C160.02 16.7975 160.891 17.2626 161.974 17.2626C163.057 17.2626 163.938 16.7871 164.616 15.8465C165.295 14.9058 165.629 13.5517 165.629 11.7944C165.629 10.0371 165.285 8.69334 164.576 7.74234C163.877 6.80168 163.017 6.32619 161.984 6.32619M161.964 23.6612C158.947 23.6612 156.487 22.6482 154.583 20.6325C152.68 18.6168 151.728 15.6707 151.728 11.7944C151.728 7.91807 152.69 4.99273 154.614 2.9977C156.537 1.00268 159.018 0 162.055 0C165.092 0 167.552 0.982006 169.415 2.94602C171.288 4.91003 172.22 7.87672 172.22 11.8668C172.22 15.8568 171.268 18.8132 169.355 20.7462C167.441 22.6895 164.981 23.6612 161.954 23.6612H161.964ZM140.753 6.02642V11.2259H141.168C141.918 11.2259 142.555 10.9881 143.072 10.5023C143.588 10.0165 143.841 9.33423 143.841 8.46593C143.841 7.59763 143.659 6.96707 143.305 6.59495C142.95 6.22282 142.323 6.03675 141.422 6.03675H140.743L140.753 6.02642ZM137.463 23.4028C135.509 23.4028 134.527 23.1857 134.527 22.7412V1.44717C134.527 0.70291 134.861 0.330781 135.529 0.330781H141.199C144.378 0.330781 146.676 1.00268 148.083 2.33614C149.491 3.6696 150.189 5.61294 150.189 8.15582C150.189 10.2645 149.521 12.1872 148.195 13.9445C147.527 14.8231 146.555 15.526 145.259 16.0532C143.973 16.5804 142.464 16.8388 140.743 16.8388V22.7309C140.743 22.9893 140.338 23.1753 139.538 23.2787C138.729 23.3821 138.04 23.4234 137.463 23.4234V23.4028ZM128.645 23.3717C126.731 23.3717 125.779 23.1547 125.779 22.7102L125.101 9.52029L121.173 22.8756C121.092 23.134 120.353 23.2684 118.986 23.2684C117.619 23.2684 116.9 23.1443 116.86 22.9066L112.8 9.38591L112.345 22.5138C112.324 22.8446 111.919 23.072 111.119 23.1857C110.32 23.3097 109.662 23.3717 109.135 23.3717C108.609 23.3717 108.102 23.3407 107.606 23.2684C106.574 23.1133 106.067 22.8446 106.088 22.4414L106.827 1.05436C106.827 0.527182 108.133 0.26876 110.755 0.26876C111.524 0.26876 112.476 0.330781 113.59 0.454824C114.703 0.578867 115.331 0.806279 115.463 1.15773L119.077 11.5256L122.236 1.12672C122.428 0.558193 123.906 0.26876 126.681 0.26876C127.47 0.26876 128.422 0.330781 129.536 0.454824C130.639 0.578867 131.196 0.785605 131.196 1.09571L132.127 22.6792C132.127 22.9169 131.712 23.0926 130.872 23.2064C130.032 23.3201 129.293 23.3717 128.645 23.3717ZM101.329 9.45827C101.734 9.45827 101.947 10.2232 101.947 11.7634C101.947 12.2286 101.896 12.7661 101.805 13.3966C101.704 14.0168 101.532 14.3373 101.268 14.3373H97.1783V17.6244H103.111C103.476 17.6244 103.719 18.1103 103.85 19.0716C103.911 19.4851 103.951 19.9296 103.951 20.4051C103.951 20.8805 103.891 21.4904 103.759 22.2347C103.627 22.9789 103.415 23.3511 103.111 23.3511H92.0857C91.2657 23.3511 90.8607 23.01 90.8607 22.3277V1.17841C90.8607 0.609877 91.1037 0.320444 91.5998 0.320444H103.131C103.587 0.320444 103.81 1.29211 103.81 3.23545C103.81 5.17879 103.587 6.15046 103.131 6.15046H97.1681V9.46861H101.329V9.45827ZM85.0291 22.8136C85.0291 23.2477 83.966 23.4751 81.8399 23.4751C79.7138 23.4751 78.6508 23.258 78.6508 22.8136V6.31585H74.7833C74.4188 6.31585 74.1555 5.80934 74.0138 4.80666C73.9531 4.32083 73.9126 3.83499 73.9126 3.32848C73.9126 2.82198 73.9429 2.3258 74.0138 1.85031C74.1657 0.837289 74.4188 0.341118 74.7833 0.341118H88.8055C89.1699 0.341118 89.4332 0.847626 89.5749 1.85031C89.6356 2.33614 89.6761 2.82198 89.6761 3.32848C89.6761 3.83499 89.6458 4.33116 89.5749 4.80666C89.423 5.81968 89.1699 6.31585 88.8055 6.31585H85.0392V22.8342L85.0291 22.8136Z" fill="white"/>
  <path d="M60.4776 37.2025C62.1987 34.701 63.1504 31.6309 63.1504 28.5402C63.1504 22.6378 59.7588 17.242 54.5144 14.7921L54.2208 14.6577L54.16 14.327C52.8438 7.08078 46.6376 1.82963 39.4089 1.82963C36.9385 1.82963 34.5796 2.42917 32.3927 3.59724L32.0485 3.78331L31.7346 3.54556C28.9403 1.44717 25.6297 0.341118 22.157 0.341118C13.2476 0.341118 5.98847 7.75268 5.98847 16.8595C5.98847 17.5004 6.02897 18.1516 6.09984 18.8028L6.14034 19.1956L5.81636 19.4127C2.1716 21.8832 -0.00512695 26.0387 -0.00512695 30.5145C-0.00512695 30.959 0.0151217 31.4139 0.055619 31.848C0.19736 33.3365 0.592208 34.7837 1.19967 36.1378C1.797 37.4609 2.60695 38.66 3.58901 39.7144C4.57107 40.7688 5.70499 41.6474 6.96041 42.3193C8.31707 43.0532 9.85597 43.5391 11.5164 43.7665C12.3567 43.8802 13.1565 43.8905 14.1183 43.8905H16.0419C17.1759 43.8905 18.1073 42.9498 18.1073 41.7818C18.1073 40.6137 17.186 39.673 16.0419 39.673H14.0171C13.2881 39.673 12.6705 39.673 12.0631 39.5904C10.8785 39.425 9.80534 39.0942 8.88403 38.598C8.02346 38.1329 7.24389 37.5333 6.57568 36.8097C5.89735 36.0861 5.35064 35.2592 4.94567 34.3599C4.52045 33.4399 4.25721 32.4579 4.15597 31.4345C4.1256 31.1348 4.11547 30.8247 4.11547 30.5145C4.11547 26.969 6.15046 23.7129 9.30925 22.2243C10.2002 21.8005 10.6862 20.7875 10.4533 19.8055C10.2204 18.8649 10.1091 17.8725 10.1091 16.8595C10.1091 10.0785 15.5155 4.55858 22.157 4.55858C25.2652 4.55858 28.2012 5.75766 30.4387 7.92841C31.1373 8.60031 32.2813 8.683 33.0609 8.11447C34.9137 6.76034 37.1106 6.03675 39.3987 6.03675C45.0684 6.03675 49.8369 10.554 50.252 16.322C50.3128 17.1799 50.8696 17.9139 51.6694 18.1826C56.0735 19.6505 59.0298 23.8162 59.0298 28.5505C59.0298 30.773 58.3414 32.9954 57.0961 34.794C55.8204 36.6443 53.9474 38.1328 51.8112 38.9598C50.2723 39.549 48.6119 39.6524 47.0629 39.673C46.506 39.673 45.9998 39.9005 45.605 40.3139C45.2304 40.7171 45.0177 41.2443 45.0279 41.8128C45.0481 42.9602 45.9897 43.8905 47.1337 43.8905C49.0675 43.8595 51.1531 43.7251 53.2792 42.8982C56.1849 41.7714 58.7362 39.7557 60.4877 37.2129L60.4776 37.2025Z" fill="white"/>
  <path d="M37.2423 53.7209C38.3762 53.7209 39.3076 52.7802 39.3076 51.6122V37.4093L40.3909 38.567C41.3021 39.487 42.5879 39.425 43.3574 38.629C43.7522 38.2259 43.9648 37.6987 43.9648 37.1405C43.9648 36.5823 43.7623 36.0551 43.3675 35.652L38.852 31.0417C38.0725 30.0494 36.4323 30.0494 35.6527 31.0417L31.1373 35.652C30.3375 36.4686 30.3375 37.8021 31.1373 38.629C31.9169 39.425 33.2735 39.425 34.0531 38.629L35.1263 37.5333L35.1971 39.0011V51.6018C35.1971 52.7596 36.1185 53.7106 37.2524 53.7106L37.2423 53.7209Z" fill="white"/>
  <path d="M25.5183 30.2665C24.3844 30.2665 23.4529 31.2071 23.4529 32.3752V46.5264L22.319 45.379C21.5394 44.5831 20.1828 44.5831 19.4032 45.379C19.0185 45.7718 18.8059 46.299 18.8059 46.8675C18.8059 47.4361 19.0185 47.9632 19.4032 48.356L24.354 53.3488L24.6679 53.5348L25.0931 53.6796L25.4474 53.7312H25.5284C25.66 53.7312 25.7917 53.7106 25.9233 53.6796L26.5105 53.4521C26.5105 53.4521 26.6016 53.4005 26.6725 53.3591L26.9256 53.1627L31.6435 48.3457C32.0384 47.9426 32.251 47.4154 32.251 46.8572C32.251 46.299 32.0384 45.7718 31.6435 45.3687C30.8639 44.5727 29.4972 44.5727 28.7277 45.3687L27.6545 46.4644L27.5837 44.9862V32.3649C27.5837 31.2071 26.6623 30.2561 25.5284 30.2561L25.5183 30.2665Z" fill="white"/>
  <path d="M186.313 41.8024C185.513 41.8024 184.845 42.0505 184.308 42.5467C183.923 42.9085 183.63 43.384 183.438 43.9835C183.316 44.3453 183.589 44.7278 183.964 44.7278H188.601C188.986 44.7278 189.249 44.335 189.127 43.9732C188.925 43.3633 188.631 42.8878 188.267 42.5364C187.761 42.0505 187.103 41.8024 186.313 41.8024ZM186.404 38.4119C187.862 38.4119 189.087 38.7531 190.079 39.4456C191.071 40.1382 191.81 41.0685 192.286 42.2366C192.762 43.4047 193.005 44.7071 193.005 46.1543V47.374H183.964C183.589 47.374 183.316 47.7668 183.438 48.1286C183.67 48.8005 184.045 49.3484 184.541 49.7515C185.209 50.2994 186.232 50.5785 187.599 50.5785C188.398 50.5785 189.117 50.4648 189.745 50.2374C190.221 50.072 190.727 49.8446 191.264 49.5655C191.557 49.4104 191.912 49.5345 192.033 49.8446L192.782 51.7259C192.873 51.9636 192.803 52.2427 192.6 52.3978C191.962 52.8629 191.284 53.2247 190.555 53.4935C189.694 53.8139 188.682 53.969 187.507 53.969C184.764 53.969 182.668 53.2867 181.251 51.9119C179.823 50.5371 179.114 48.6455 179.114 46.2266C179.114 44.6658 179.408 43.291 179.995 42.1126C180.582 40.9341 181.423 40.0245 182.516 39.3836C183.61 38.7427 184.906 38.4223 186.404 38.4223V38.4119ZM170.185 50.5785C170.701 50.5785 171.207 50.4751 171.693 50.2684C172.108 50.0926 172.544 49.8446 172.989 49.5241C173.141 49.4207 173.232 49.2347 173.232 49.059V43.3116C173.232 43.1359 173.151 42.9705 173.02 42.8671C172.574 42.5054 172.149 42.2469 171.734 42.0815C171.258 41.8851 170.742 41.7921 170.185 41.7921C169.132 41.7921 168.292 42.2056 167.674 43.0325C167.056 43.8595 166.742 44.9139 166.742 46.2163C166.742 47.5188 167.046 48.5731 167.654 49.3691C168.261 50.1753 169.101 50.5785 170.175 50.5785H170.185ZM176.593 53.5969H175.115L174.558 52.7596C174.376 52.4908 174.022 52.4495 173.759 52.6459C172.615 53.5245 171.369 53.969 170.043 53.969C167.795 53.969 166.014 53.2764 164.707 51.8809C163.401 50.4854 162.754 48.6041 162.754 46.2266C162.754 44.6761 163.047 43.322 163.634 42.1436C164.222 40.9652 165.072 40.0452 166.186 39.3939C167.299 38.7427 168.626 38.4223 170.154 38.4223C170.63 38.4223 171.136 38.505 171.683 38.6807C172.22 38.8564 172.736 39.0942 173.232 39.3939V32.923C173.232 32.6336 173.455 32.3855 173.738 32.3649L176.553 32.1271C176.877 32.0961 177.15 32.3545 177.15 32.6853V53.049C177.15 53.3591 176.907 53.6072 176.604 53.6072L176.593 53.5969ZM154.381 47.0949C153.743 47.0949 153.227 47.3017 152.842 47.7048C152.457 48.108 152.255 48.6041 152.255 49.1727C152.255 49.6171 152.427 50.0099 152.781 50.3304C153.125 50.6508 153.571 50.8162 154.107 50.8162C155.191 50.8162 156.193 50.3821 157.124 49.5241C157.236 49.4207 157.307 49.2554 157.307 49.1003V47.6531C157.307 47.343 157.064 47.0949 156.76 47.0949H154.381ZM154.948 42.0609C154.29 42.0609 153.561 42.1539 152.771 42.3503C152.204 42.4847 151.708 42.6397 151.262 42.8155C150.969 42.9292 150.655 42.7638 150.554 42.464L149.835 40.1899C149.744 39.9211 149.875 39.6317 150.128 39.5077C150.635 39.2596 151.313 39.0322 152.174 38.8254C153.308 38.5463 154.219 38.4119 154.897 38.4119C156.051 38.4119 157.104 38.6497 158.066 39.1149C159.018 39.58 159.787 40.2312 160.354 41.0685C160.921 41.9058 161.204 42.8361 161.204 43.8698V53.0387C161.204 53.3488 160.962 53.5969 160.658 53.5969H158.663L158.005 52.0153C156.79 53.3178 155.515 53.969 154.178 53.969C152.447 53.969 151.141 53.5348 150.26 52.6769C149.379 51.8086 148.944 50.6508 148.944 49.183C148.944 47.7152 149.44 46.5161 150.442 45.6891C151.445 44.8622 152.771 44.4487 154.441 44.4487H157.276C157.256 43.6941 157.043 43.1152 156.638 42.6914C156.233 42.2779 155.666 42.0712 154.948 42.0712V42.0609ZM139.508 50.5681C140.024 50.5681 140.531 50.4648 141.017 50.258C141.432 50.0823 141.867 49.8342 142.312 49.5138C142.464 49.4104 142.555 49.2243 142.555 49.0486V43.3013C142.555 43.1256 142.474 42.9602 142.343 42.8568C141.897 42.495 141.472 42.2366 141.057 42.0712C140.581 41.8748 140.065 41.7818 139.508 41.7818C138.455 41.7818 137.615 42.1953 136.997 43.0222C136.38 43.8492 136.076 44.9035 136.076 46.206C136.076 47.5084 136.38 48.5628 136.987 49.3587C137.595 50.165 138.435 50.5681 139.508 50.5681ZM145.917 53.5865H144.439L143.882 52.7492C143.7 52.4805 143.345 52.4391 143.082 52.6355C141.938 53.5142 140.693 53.9586 139.366 53.9586C137.119 53.9586 135.337 53.2661 134.031 51.8706C132.725 50.4751 132.077 48.5938 132.077 46.2163C132.077 44.6658 132.37 43.3116 132.958 42.1332C133.545 40.9548 134.395 40.0348 135.509 39.3836C136.623 38.7324 137.949 38.4119 139.478 38.4119C139.954 38.4119 140.46 38.4946 141.006 38.6704C141.543 38.8461 142.059 39.0838 142.555 39.3836V32.9127C142.555 32.6233 142.778 32.3752 143.062 32.3545L145.876 32.1168C146.2 32.0858 146.474 32.3442 146.474 32.675V53.0387C146.474 53.3488 146.231 53.5969 145.927 53.5969L145.917 53.5865ZM130.396 39.3526V53.0283C130.396 53.3384 130.153 53.5865 129.849 53.5865H127.065C126.762 53.5865 126.519 53.3384 126.519 53.0283V39.3526C126.519 39.0425 126.762 38.7944 127.065 38.7944H129.849C130.153 38.7944 130.396 39.0425 130.396 39.3526ZM131.348 34.4632C131.348 35.0938 131.135 35.621 130.71 36.0448C130.285 36.4686 129.758 36.6857 129.141 36.6857C128.523 36.6857 128.037 36.4686 127.622 36.0448C127.207 35.621 126.994 35.0938 126.994 34.4632C126.994 33.8327 127.207 33.3055 127.622 32.8817C128.037 32.4579 128.543 32.2408 129.141 32.2408C129.738 32.2408 130.285 32.4579 130.71 32.8817C131.135 33.3055 131.348 33.8327 131.348 34.4632ZM119.583 32.4165C120.302 32.4165 121.173 32.5302 122.216 32.7577C123.056 32.9437 123.815 33.1918 124.504 33.5226C124.767 33.6466 124.878 33.9774 124.757 34.2462L123.765 36.5926L123.016 36.3756C122.236 36.1275 121.618 35.9621 121.163 35.8691C120.707 35.776 120.14 35.7347 119.462 35.7347C118.389 35.7347 117.417 36.0448 116.566 36.6547C115.706 37.2645 115.038 38.1432 114.552 39.2802C114.066 40.4173 113.823 41.7508 113.823 43.2806C113.823 44.6451 114.035 45.8855 114.46 47.0122C114.886 48.139 115.513 49.0383 116.323 49.6998C117.143 50.3614 118.105 50.6922 119.219 50.6922C120.545 50.6922 121.871 50.4338 123.208 49.9273C123.471 49.8239 123.765 49.9273 123.886 50.1857L124.868 52.1497C125.01 52.4288 124.899 52.7906 124.615 52.9146C123.967 53.2041 123.208 53.4521 122.357 53.6382C121.274 53.8863 120.292 54 119.411 54C117.356 54 115.605 53.5348 114.157 52.5942C112.699 51.6639 111.605 50.3821 110.866 48.7695C110.127 47.157 109.763 45.3273 109.763 43.291C109.763 41.2546 110.168 39.2906 110.978 37.647C111.788 36.0034 112.932 34.7113 114.41 33.7913C115.898 32.861 117.609 32.4062 119.563 32.4062L119.583 32.4165ZM95.123 47.0846C94.4852 47.0846 93.9689 47.2913 93.5841 47.6945C93.1994 48.0976 92.9969 48.5938 92.9969 49.1623C92.9969 49.6068 93.169 49.9996 93.5234 50.3201C93.8676 50.6405 94.3131 50.8059 94.8497 50.8059C95.933 50.8059 96.9353 50.3717 97.8667 49.5138C97.9781 49.4104 98.049 49.245 98.049 49.09V47.6428C98.049 47.3327 97.806 47.0846 97.5023 47.0846H95.123ZM95.69 42.0505C95.0319 42.0505 94.303 42.1436 93.5133 42.34C92.9463 42.4743 92.4502 42.6294 92.0047 42.8051C91.7111 42.9188 91.3973 42.7534 91.296 42.4537L90.6379 40.3759C90.4861 39.9005 90.6076 39.611 90.8607 39.487C91.3669 39.2389 92.0452 39.0115 92.9058 38.8047C94.0397 38.5256 94.9509 38.3913 95.6292 38.3913C96.7834 38.3913 97.8363 38.629 98.7982 39.0942C99.7498 39.5593 100.519 40.2106 101.086 41.0479C101.653 41.8851 101.937 42.8155 101.937 43.8492V53.018C101.937 53.3281 101.694 53.5762 101.39 53.5762H99.3955L98.7374 51.9946C97.5225 53.2971 96.2468 53.9483 94.9104 53.9483C93.1792 53.9483 91.8731 53.5142 90.9923 52.6562C90.1115 51.7879 89.6761 50.6302 89.6761 49.1623C89.6761 47.6945 90.1722 46.4954 91.1745 45.6685C92.1667 44.8415 93.5031 44.428 95.1737 44.428H98.0085C97.9882 43.6734 97.7756 43.0946 97.3706 42.6707C96.9657 42.2573 96.3987 42.0505 95.6799 42.0505H95.69ZM81.6577 41.5957C80.9793 41.5957 80.3415 41.7508 79.7442 42.0712C79.2177 42.3503 78.6305 42.7121 78.0129 43.1669C77.8712 43.2703 77.7801 43.446 77.7801 43.6217C77.7801 45.0172 77.7801 51.1367 77.7801 53.0283C77.7801 53.3384 77.5371 53.5865 77.2333 53.5865H74.4492C74.1454 53.5865 73.9024 53.3384 73.9024 53.0283V39.3526C73.9024 39.0425 74.1454 38.7944 74.4492 38.7944H75.8362C76.2007 38.7944 76.5348 39.0218 76.6765 39.3629C76.8891 39.8798 77.4966 40.0865 77.9623 39.8074C78.6001 39.425 79.2683 39.1045 79.9669 38.8564C80.9793 38.4946 81.8905 38.3086 82.6904 38.3086C84.5229 38.3086 85.8087 38.8358 86.5477 39.8901C87.2868 40.9445 87.6513 42.4227 87.6513 44.3143V53.0283C87.6513 53.3384 87.4083 53.5865 87.1046 53.5865H84.3204C84.0166 53.5865 83.7737 53.3384 83.7737 53.0283V44.5004C83.7737 43.5804 83.5914 42.8775 83.2168 42.3606C82.8523 41.8541 82.336 41.5957 81.6779 41.5957H81.6577Z" fill="white"/>
  <path d="M173.951 3.36983C173.951 2.78063 174.093 2.22243 174.386 1.70559C174.68 1.18874 175.075 0.785605 175.581 0.485835C176.087 0.186064 176.634 0.0413476 177.221 0.0413476C177.808 0.0413476 178.345 0.186064 178.851 0.485835C179.357 0.785605 179.762 1.18874 180.046 1.70559C180.339 2.22243 180.481 2.78063 180.481 3.38017C180.481 3.97971 180.339 4.50689 180.056 5.02374C179.772 5.53024 179.378 5.94372 178.871 6.25383C178.365 6.56393 177.808 6.71899 177.211 6.71899C176.614 6.71899 176.057 6.56394 175.551 6.26416C175.044 5.95406 174.65 5.55092 174.366 5.03407C174.083 4.51723 173.941 3.96937 173.941 3.39051L173.951 3.36983ZM174.407 3.36983C174.407 3.87634 174.528 4.36217 174.781 4.80666C175.034 5.25115 175.379 5.6026 175.814 5.86103C176.249 6.11945 176.715 6.24349 177.211 6.24349C177.707 6.24349 178.183 6.11945 178.618 5.86103C179.054 5.6026 179.388 5.25115 179.641 4.817C179.894 4.38285 180.026 3.89701 180.026 3.38017C180.026 2.86332 179.904 2.38783 179.651 1.94334C179.398 1.49885 179.054 1.15773 178.628 0.899311C178.203 0.640888 177.727 0.506508 177.221 0.506508C176.715 0.506508 176.249 0.630551 175.814 0.888974C175.379 1.1474 175.044 1.49885 174.791 1.933C174.538 2.36715 174.407 2.85299 174.407 3.36983ZM178.537 2.56355C178.537 2.8013 178.477 3.00804 178.355 3.1941C178.234 3.38017 178.061 3.51455 177.839 3.59724L178.871 5.34418H178.142L177.241 3.77297H176.654V5.34418H176.006V1.39548H177.14C177.616 1.39548 177.97 1.48851 178.193 1.68492C178.416 1.88132 178.527 2.17075 178.527 2.56355H178.537ZM176.654 3.23545H177.12C177.353 3.23545 177.535 3.17343 177.677 3.04939C177.819 2.92534 177.889 2.77029 177.889 2.58423C177.889 2.36715 177.829 2.20176 177.707 2.10873C177.586 2.0157 177.383 1.96401 177.12 1.96401H176.664V3.23545H176.654Z" fill="white"/>
</svg>