<svg xmlns="http://www.w3.org/2000/svg" width="201" height="60" viewBox="0 0 201 60" fill="none">
  <path d="M156.465 13.969H159.912L158.435 7.19427H158.24L156.465 13.969ZM165.022 23.2611C163.124 23.2611 162.087 22.9541 161.934 22.3503L160.856 18.1341H155.644L154.69 22.1866C154.556 22.862 153.51 23.1997 151.54 23.1997C150.493 23.1997 149.713 23.1383 149.211 23.0155C148.708 22.8927 148.462 22.8006 148.462 22.7392L154.269 0.593553C154.269 0.41958 155.767 0.327477 158.763 0.327477C161.759 0.327477 163.257 0.41958 163.257 0.593553L168.931 22.7699C168.931 22.9234 168.428 23.0462 167.423 23.1281C166.417 23.21 165.617 23.2611 165.032 23.2611H165.022ZM143.485 23.2304C141.536 23.2304 140.572 23.0155 140.572 22.5755L139.884 9.45591L135.883 22.7392C135.8 23.0053 135.051 23.1281 133.656 23.1281C132.261 23.1281 131.532 23.0053 131.491 22.7699L127.356 9.32287L126.894 22.3708C126.874 22.6983 126.453 22.9234 125.643 23.0462C124.832 23.169 124.165 23.2304 123.621 23.2304C123.078 23.2304 122.565 23.1997 122.062 23.1281C121.015 22.9746 120.502 22.6983 120.523 22.3094L121.282 1.04383C121.282 0.521917 122.616 0.255842 125.284 0.255842C126.074 0.255842 127.028 0.317244 128.167 0.440048C129.306 0.562852 129.942 0.798226 130.065 1.14617L133.738 11.4515L136.95 1.11547C137.145 0.552618 138.653 0.266075 141.474 0.266075C142.285 0.266075 143.249 0.327477 144.378 0.450281C145.507 0.573085 146.071 0.787992 146.071 1.08477L147.025 22.5448C147.025 22.7801 146.594 22.9644 145.743 23.0667C144.891 23.1793 144.132 23.2304 143.475 23.2304H143.485ZM109.288 17.5712V5.92529H107.872C107.502 5.92529 107.225 5.45455 107.082 4.52328C107.01 4.06277 106.979 3.59202 106.979 3.12127C106.979 2.65052 107.01 2.16954 107.082 1.71926C107.225 0.777759 107.492 0.317244 107.872 0.317244H117.291C117.66 0.317244 117.906 0.787992 118.05 1.71926C118.122 2.17977 118.183 2.65052 118.183 3.12127C118.183 3.59202 118.122 4.073 118.05 4.52328C117.906 5.45455 117.66 5.92529 117.291 5.92529H115.783V17.5712H117.393C117.763 17.5712 118.019 18.042 118.183 18.9732C118.266 19.4337 118.317 19.9045 118.317 20.3752C118.317 20.846 118.266 21.327 118.183 21.7875C118.03 22.7187 117.763 23.1895 117.393 23.1895H107.944C107.574 23.1895 107.338 22.7187 107.195 21.7875C107.123 21.327 107.061 20.8562 107.061 20.3752C107.061 19.8943 107.123 19.4235 107.195 18.9732C107.338 18.042 107.574 17.5712 107.944 17.5712H109.288ZM93.1893 21.2656V0.92103C93.1893 0.460515 94.2974 0.235374 96.5136 0.235374C98.7299 0.235374 99.838 0.460515 99.838 0.92103V16.947H104.886C105.276 16.947 105.553 17.4586 105.707 18.482C105.768 18.9835 105.809 19.4951 105.809 20.0171C105.809 20.539 105.779 21.0711 105.707 21.6237C105.532 22.6676 105.245 23.1895 104.855 23.1895H94.7488C94.2666 23.1895 93.887 22.9951 93.5997 22.6062C93.3124 22.2173 93.1688 21.767 93.1688 21.2656H93.1893ZM85.1657 0C86.756 0 88.172 0.225141 89.3827 0.675422C90.5934 1.1257 91.209 1.72949 91.209 2.48678C91.209 3.24407 90.9217 4.1958 90.3369 5.31127C89.7623 6.43698 89.2698 6.99983 88.8799 6.99983C88.7671 6.99983 88.6439 6.93843 88.5003 6.82586C88.3567 6.70305 88.0283 6.57001 87.5153 6.43698C87.0023 6.29371 86.5611 6.22207 86.1917 6.22207C84.9194 6.22207 83.9037 6.67235 83.1239 7.56268C82.3441 8.45301 81.9542 9.82432 81.9542 11.6664C81.9542 13.5084 82.3544 14.8798 83.1547 15.7701C83.955 16.6604 84.9605 17.1107 86.1917 17.1107C86.6945 17.1107 87.2588 17.0391 87.8847 16.8958C88.5106 16.7525 88.9518 16.5478 89.2185 16.292C89.2596 16.2511 89.3519 16.2306 89.4853 16.2306C89.6187 16.2306 89.8649 16.4762 90.224 16.9674C90.5831 17.4586 90.9217 18.1034 91.2295 18.9016C91.5374 19.6998 91.6913 20.3138 91.6913 20.7539C91.6913 21.6033 91.0346 22.2787 89.7213 22.7801C88.408 23.2816 86.8586 23.5272 85.0631 23.5272C82.1799 23.5272 79.7995 22.5141 77.9424 20.4878C76.0853 18.4615 75.1516 15.5961 75.1516 11.9018C75.1516 8.2074 76.1058 5.30104 78.0245 3.18267C79.9329 1.0643 82.3236 0.0102337 85.1862 0.0102337L85.1657 0Z" fill="white"/>
  <path d="M196.962 45.724C196.962 44.4653 196.613 43.4317 195.906 42.6232C194.941 41.5282 193.607 41.1803 191.904 41.5794C191.832 41.5999 191.76 41.6306 191.699 41.6613C190.18 42.5721 189.421 43.9434 189.421 45.7752C189.421 47.0339 189.77 48.0675 190.478 48.876C191.442 49.971 192.776 50.3189 194.49 49.9198C194.561 49.8994 194.633 49.8789 194.695 49.838C196.203 48.9374 196.962 47.5661 196.962 45.724ZM193.197 53.4197C191.627 53.4197 190.252 53.1127 189.082 52.4885C187.902 51.8642 187 50.9841 186.353 49.8277C185.707 48.6713 185.389 47.3307 185.389 45.7854C185.389 44.2402 185.707 42.8893 186.353 41.7227C187 40.556 187.902 39.6657 189.082 39.0312C190.262 38.3967 191.627 38.0795 193.197 38.0795C194.767 38.0795 196.141 38.3865 197.311 39.0107C198.491 39.635 199.394 40.5151 200.04 41.6715C200.687 42.8279 201.005 44.1685 201.005 45.7138C201.005 47.2591 200.687 48.6099 200.04 49.7766C199.394 50.9432 198.491 51.8335 197.311 52.468C196.131 53.1025 194.767 53.4197 193.197 53.4197ZM180.566 45.724C180.566 44.4346 180.258 43.401 179.643 42.613C179.027 41.825 178.176 41.4259 177.098 41.4259C176.349 41.4259 175.57 41.6613 174.79 42.1218C174.615 42.2241 174.502 42.4288 174.502 42.6335V48.9272C174.502 49.1318 174.605 49.3263 174.779 49.4286C175.518 49.8687 176.288 50.0938 177.098 50.0938C178.165 50.0938 179.007 49.6845 179.633 48.876C180.258 48.0675 180.566 47.0135 180.566 45.7343V45.724ZM184.609 45.724C184.609 47.2488 184.311 48.5895 183.716 49.7561C183.121 50.9227 182.259 51.8233 181.141 52.468C180.012 53.1127 178.678 53.43 177.129 53.43C176.544 53.43 175.929 53.3174 175.282 53.082C174.903 52.9388 174.502 53.2151 174.502 53.6244V59.4167C174.502 59.7339 174.246 60 173.918 60H171.188C170.87 60 170.604 59.7442 170.604 59.4167V39.0721C170.604 38.7549 170.86 38.4888 171.188 38.4888H172.317C172.491 38.4888 172.666 38.5707 172.779 38.714L173.384 39.4815C174.574 38.5605 175.857 38.0999 177.242 38.0999C179.509 38.0999 181.305 38.7856 182.629 40.1569C183.942 41.5282 184.599 43.3908 184.599 45.7343L184.609 45.724ZM167.967 43.3191V52.4885C167.967 52.8057 167.71 53.0718 167.382 53.0718H164.622C164.304 53.0718 164.037 52.816 164.037 52.4885V44.1071C164.037 43.1656 163.893 42.4493 163.596 41.9683C163.308 41.4873 162.847 41.2417 162.221 41.2417C161.595 41.2417 161.061 41.385 160.559 41.6613C160.056 41.9376 159.409 42.3674 158.63 42.9302V52.4885C158.63 52.8057 158.373 53.0718 158.045 53.0718H155.285C154.967 53.0718 154.7 52.816 154.7 52.4885V44.1071C154.7 43.1656 154.556 42.4493 154.259 41.9683C153.972 41.4873 153.51 41.2417 152.884 41.2417C152.258 41.2417 151.724 41.385 151.222 41.6613C150.77 41.9069 150.206 42.2855 149.508 42.7767C149.354 42.8893 149.262 43.0633 149.262 43.2577C149.262 44.6495 149.262 50.6055 149.262 52.4885C149.262 52.8057 149.005 53.0718 148.677 53.0718H145.917C145.599 53.0718 145.332 52.816 145.332 52.4885V39.0619C145.332 38.7447 145.589 38.4786 145.917 38.4786H147.518C147.754 38.4786 147.959 38.6219 148.051 38.8368L148.287 39.3996C148.431 39.7373 148.841 39.8499 149.149 39.6555C149.867 39.195 150.606 38.8265 151.365 38.54C152.33 38.1818 153.171 37.9976 153.9 37.9976C155.654 37.9976 156.916 38.5195 157.665 39.5531C157.84 39.7885 158.178 39.8192 158.424 39.6657C159.173 39.1949 159.933 38.8163 160.713 38.5298C161.656 38.1818 162.488 38.0078 163.216 38.0078C164.889 38.0078 166.089 38.4581 166.817 39.3485C167.556 40.2388 167.915 41.5692 167.915 43.3293L167.967 43.3191ZM136.036 46.6553C135.39 46.6553 134.877 46.86 134.487 47.2591C134.097 47.6582 133.902 48.1392 133.902 48.702C133.902 49.1421 134.077 49.5207 134.426 49.8482C134.774 50.1654 135.226 50.3292 135.77 50.3292C136.857 50.3292 137.873 49.9096 138.807 49.0704C138.93 48.9579 139.002 48.7941 139.002 48.6304V47.2488C139.002 46.9316 138.745 46.6655 138.417 46.6655H136.047L136.036 46.6553ZM136.611 41.692C135.944 41.692 135.216 41.7841 134.405 41.9785C133.851 42.1115 133.348 42.2548 132.907 42.4288C132.599 42.5414 132.261 42.3776 132.158 42.0604L131.44 39.8601C131.347 39.5838 131.481 39.2768 131.748 39.154C132.261 38.9084 132.938 38.6935 133.8 38.4888C134.949 38.2228 135.862 38.0795 136.549 38.0795C137.719 38.0795 138.786 38.3149 139.751 38.7754C140.715 39.2359 141.485 39.8806 142.059 40.6993C142.634 41.518 142.921 42.439 142.921 43.4624V52.4782C142.921 52.7955 142.665 53.0616 142.336 53.0616H140.746C140.51 53.0616 140.305 52.9183 140.212 52.7034L139.699 51.4958C138.468 52.775 137.186 53.4197 135.841 53.4197C134.087 53.4197 132.774 52.9899 131.891 52.1405C131.009 51.2911 130.568 50.145 130.568 48.6918C130.568 47.2386 131.07 46.0617 132.076 45.243C133.081 44.4244 134.426 44.0252 136.119 44.0252H138.981C138.961 43.2782 138.745 42.7051 138.335 42.2958C137.924 41.8864 137.36 41.6817 136.632 41.6817L136.611 41.692ZM123.95 32.1849C124.678 32.1849 125.561 32.2975 126.607 32.5124C127.449 32.6863 128.208 32.9422 128.895 33.2594C129.172 33.3925 129.285 33.7302 129.162 34.0167L128.177 36.3091L127.428 36.0941C126.648 35.8588 126.022 35.6848 125.561 35.5927C125.099 35.5006 124.524 35.4597 123.847 35.4597C122.76 35.4597 121.785 35.7564 120.923 36.3602C120.061 36.964 119.384 37.8236 118.891 38.9493C118.399 40.075 118.153 41.385 118.153 42.8893C118.153 44.2299 118.368 45.458 118.799 46.5734C119.23 47.6889 119.856 48.569 120.687 49.2239C121.508 49.8789 122.483 50.2064 123.611 50.2064C124.935 50.2064 126.279 49.9608 127.623 49.4593C127.9 49.357 128.208 49.4593 128.341 49.7254L129.224 51.4446C129.46 51.9154 129.347 52.2838 129.049 52.4066C128.403 52.6932 127.643 52.9285 126.792 53.1127C125.694 53.3481 124.709 53.4709 123.816 53.4709C121.744 53.4709 119.979 53.0104 118.512 52.0894C117.045 51.1683 115.936 49.9096 115.198 48.3131C114.449 46.7167 114.079 44.9156 114.079 42.9098C114.079 40.904 114.49 38.9698 115.3 37.3427C116.111 35.7155 117.27 34.4465 118.768 33.5357C120.266 32.6249 122 32.1644 123.97 32.1644L123.95 32.1849ZM102.157 45.724C102.157 44.4653 101.808 43.4317 101.1 42.6232C100.136 41.5282 98.8017 41.1803 97.0882 41.5794C97.0164 41.5999 96.9446 41.6203 96.883 41.6613C95.3747 42.5721 94.6155 43.9434 94.6155 45.7752C94.6155 47.0339 94.9643 48.0675 95.6723 48.876C96.6367 49.971 97.9706 50.3189 99.6738 49.9198C99.7456 49.8994 99.8175 49.8687 99.879 49.838C101.398 48.9374 102.157 47.5661 102.157 45.724ZM98.3913 53.4197C96.8214 53.4197 95.4465 53.1127 94.2769 52.4885C93.0969 51.8642 92.194 50.9841 91.5476 49.8277C90.9012 48.6713 90.5831 47.3307 90.5831 45.7854C90.5831 44.2402 90.9012 42.8893 91.5476 41.7227C92.194 40.556 93.0969 39.6657 94.2769 39.0312C95.4568 38.3967 96.8214 38.0795 98.3913 38.0795C99.9611 38.0795 101.336 38.3865 102.506 39.0107C103.686 39.635 104.589 40.5151 105.235 41.6715C105.881 42.8279 106.199 44.1685 106.199 45.7138C106.199 47.2591 105.881 48.6099 105.235 49.7766C104.589 50.9432 103.686 51.8335 102.506 52.468C101.326 53.1025 99.9611 53.4197 98.3913 53.4197ZM82.9905 41.2314C82.3031 41.2314 81.6669 41.385 81.0615 41.7022C80.528 41.9785 79.9534 42.3367 79.3276 42.7665C79.1737 42.8791 79.0711 43.053 79.0711 43.2475C79.0711 44.6495 79.0711 50.585 79.0711 52.4782C79.0711 52.7955 78.8145 53.0616 78.4862 53.0616H75.7262C75.4081 53.0616 75.1413 52.8057 75.1413 52.4782V39.0517C75.1413 38.7344 75.3979 38.4684 75.7262 38.4684H77.3268C77.5628 38.4684 77.768 38.6116 77.8603 38.8265L78.0963 39.3894C78.24 39.7271 78.6401 39.8397 78.9479 39.6452C79.6764 39.1847 80.4562 38.8163 81.2565 38.5298C82.2825 38.1716 83.1957 37.9874 84.0063 37.9874C85.8531 37.9874 87.1562 38.5093 87.8949 39.5531C88.6337 40.597 89.0133 42.0501 89.0133 43.9127V52.4782C89.0133 52.7955 88.7568 53.0616 88.4285 53.0616H85.6684C85.3504 53.0616 85.0836 52.8057 85.0836 52.4782V44.0969C85.0836 43.1963 84.8989 42.4902 84.5295 41.9887C84.1602 41.4873 83.6369 41.2314 82.9802 41.2314H82.9905Z" fill="white"/>
  <path d="M61.3001 36.8003C63.0444 34.3237 64.0089 31.2843 64.0089 28.2245C64.0089 22.381 60.5717 17.0391 55.2568 14.6137L54.9592 14.4806L54.8977 14.1532C53.5638 6.97936 47.2743 1.78066 39.9484 1.78066C37.4449 1.78066 35.0542 2.37421 32.838 3.53062L32.4891 3.71482L32.171 3.47945C29.3392 1.40201 25.9841 0.30701 22.4648 0.30701C13.4357 0.30701 6.079 7.64455 6.079 16.6604C6.079 17.2949 6.12004 17.9396 6.19187 18.5843L6.23291 18.9732L5.90458 19.1881C2.21086 21.634 0.00488281 25.7479 0.00488281 30.1791C0.00488281 30.6191 0.0254035 31.0694 0.0664448 31.4992C0.21009 32.9729 0.610243 34.4056 1.22586 35.7462C1.83122 37.0561 2.65205 38.2432 3.6473 39.2871C4.64256 40.3309 5.79171 41.2007 7.064 41.8659C8.43888 42.5925 9.99845 43.0735 11.6811 43.2987C12.5328 43.4112 13.3433 43.4215 14.3181 43.4215H16.2675C17.4167 43.4215 18.3606 42.4902 18.3606 41.3338C18.3606 40.1774 17.4269 39.2461 16.2675 39.2461H14.2155C13.4767 39.2461 12.8508 39.2461 12.2352 39.1642C11.0347 39.0005 9.94715 38.673 9.01346 38.1818C8.14133 37.7213 7.35128 37.1278 6.6741 36.4114C5.98666 35.695 5.4326 34.8763 5.02219 33.986C4.59125 33.0752 4.32449 32.103 4.22188 31.0899C4.1911 30.7931 4.18084 30.4861 4.18084 30.1791C4.18084 26.6689 6.24317 23.4453 9.44439 21.9717C10.3473 21.5521 10.8398 20.5492 10.6038 19.577C10.3678 18.6457 10.255 17.6633 10.255 16.6604C10.255 9.94713 15.734 4.48235 22.4648 4.48235C25.6147 4.48235 28.5902 5.66945 30.8577 7.81852C31.5657 8.48371 32.7251 8.56558 33.5151 8.00273C35.3928 6.66212 37.6193 5.94576 39.9381 5.94576C45.6839 5.94576 50.5165 10.4179 50.9372 16.1283C50.9988 16.9777 51.5631 17.7042 52.3736 17.9703C56.8369 19.4235 59.8329 23.5477 59.8329 28.2347C59.8329 30.4349 59.1352 32.6352 57.8732 34.4158C56.5804 36.2477 54.6822 37.7213 52.5173 38.54C50.9577 39.1233 49.275 39.2256 47.7052 39.2461C47.1409 39.2461 46.6279 39.4713 46.2277 39.8806C45.8481 40.2797 45.6326 40.8016 45.6429 41.3645C45.6634 42.5004 46.6176 43.4215 47.777 43.4215C49.7367 43.3908 51.8504 43.2577 54.005 42.439C56.9498 41.3236 59.5354 39.328 61.3104 36.8105L61.3001 36.8003Z" fill="white"/>
  <path d="M37.7527 53.1537C38.9018 53.1537 39.8458 52.2224 39.8458 51.066V37.0049L40.9436 38.1511C41.8671 39.0619 43.1701 39.0005 43.9499 38.2125C44.3501 37.8134 44.5655 37.2915 44.5655 36.7389C44.5655 36.1863 44.3603 35.6643 43.9602 35.2652L39.3841 30.701C38.594 29.7186 36.9318 29.7186 36.1418 30.701L31.5657 35.2652C30.7551 36.0737 30.7551 37.3938 31.5657 38.2125C32.3557 39.0005 33.7306 39.0005 34.5207 38.2125L35.6082 37.1277L35.6801 38.5809V51.0558C35.6801 52.2019 36.6138 53.1434 37.7629 53.1434L37.7527 53.1537Z" fill="white"/>
  <path d="M25.8712 29.9335C24.722 29.9335 23.7781 30.8647 23.7781 32.0211V46.031L22.6289 44.8951C21.8389 44.1071 20.464 44.1071 19.674 44.8951C19.2841 45.284 19.0686 45.8059 19.0686 46.3688C19.0686 46.9316 19.2841 47.4535 19.674 47.8424L24.6913 52.7853L25.0093 52.9695L25.4403 53.1127L25.7994 53.1639H25.8815C26.0148 53.1639 26.1482 53.1434 26.2816 53.1127L26.8767 52.8876C26.8767 52.8876 26.969 52.8364 27.0409 52.7955L27.2974 52.6011L32.0787 47.8322C32.4789 47.4331 32.6943 46.9111 32.6943 46.3585C32.6943 45.8059 32.4789 45.284 32.0787 44.8849C31.2887 44.0969 29.9035 44.0969 29.1237 44.8849L28.0361 45.9696L27.9643 44.5062V32.0109C27.9643 30.8647 27.0306 29.9232 25.8815 29.9232L25.8712 29.9335Z" fill="white"/>
  <path d="M168.941 3.30547C168.941 2.72216 169.085 2.16954 169.383 1.65785C169.68 1.14617 170.08 0.747058 170.593 0.450281C171.106 0.153505 171.66 0.0102337 172.255 0.0102337C172.851 0.0102337 173.394 0.153505 173.907 0.450281C174.42 0.747058 174.831 1.14617 175.118 1.65785C175.416 2.16954 175.559 2.72216 175.559 3.31571C175.559 3.90926 175.416 4.43118 175.128 4.94286C174.841 5.44431 174.441 5.85366 173.928 6.16067C173.415 6.46768 172.851 6.62118 172.245 6.62118C171.64 6.62118 171.075 6.46768 170.562 6.1709C170.049 5.86389 169.649 5.46478 169.362 4.9531C169.075 4.44141 168.931 3.89903 168.931 3.32594L168.941 3.30547ZM169.403 3.30547C169.403 3.80692 169.526 4.28791 169.783 4.72795C170.039 5.168 170.388 5.51595 170.829 5.77179C171.27 6.02763 171.742 6.15043 172.245 6.15043C172.748 6.15043 173.23 6.02763 173.671 5.77179C174.113 5.51595 174.451 5.168 174.708 4.73819C174.964 4.30837 175.098 3.82739 175.098 3.31571C175.098 2.80403 174.974 2.33328 174.718 1.89323C174.461 1.45318 174.113 1.11547 173.682 0.859628C173.251 0.603786 172.768 0.470749 172.255 0.470749C171.742 0.470749 171.27 0.593553 170.829 0.849394C170.388 1.10524 170.049 1.45318 169.793 1.883C169.536 2.31281 169.403 2.79379 169.403 3.30547ZM173.589 2.50725C173.589 2.74262 173.528 2.9473 173.405 3.1315C173.281 3.31571 173.107 3.44875 172.881 3.53062L173.928 5.26011H173.189L172.276 3.70459H171.681V5.26011H171.024V1.35084H172.173C172.656 1.35084 173.015 1.44295 173.24 1.63739C173.466 1.83183 173.579 2.11837 173.579 2.50725H173.589ZM171.681 3.17244H172.153C172.389 3.17244 172.574 3.11104 172.717 2.98823C172.861 2.86543 172.933 2.71192 172.933 2.52772C172.933 2.31281 172.871 2.14907 172.748 2.05697C172.625 1.96486 172.42 1.9137 172.153 1.9137H171.691V3.17244H171.681Z" fill="white"/>
</svg>