<svg xmlns="http://www.w3.org/2000/svg" width="65" height="44" viewBox="0 0 65 44" fill="none">
  <path d="M65 2C65 0.895431 64.1046 0 63 0H2C0.895431 0 0 0.895431 0 2V42C0 43.1046 0.89543 44 2 44H63C64.1046 44 65 43.1046 65 42V2Z" fill="#4CAE4F"/>
  <path fill-rule="evenodd" clip-rule="evenodd" d="M6.05399 21.9586L32.5001 39.5862L58.9738 22.0414L32.5276 4.41381L6.05399 21.9586Z" fill="#FFC11B"/>
  <path fill-rule="evenodd" clip-rule="evenodd" d="M22.3732 20.2897C21.6528 22.1517 22.6918 26.069 24.091 27.9448C28.4271 33.7104 36.3235 33.5586 40.4933 28.4966C40.9505 27.9448 42.128 26.2069 42.2389 25.2414C41.4908 24.4966 39.4821 23.3793 38.3462 22.8276C36.9193 22.1379 35.4231 21.5586 33.7884 21.1035C29.9925 20.069 26.4738 19.931 22.3732 20.2897Z" fill="#3F51B3"/>
  <path fill-rule="evenodd" clip-rule="evenodd" d="M23.3983 17.2C24.285 17.2414 25.3793 17.1172 26.3214 17.1172C27.2773 17.1172 28.2471 17.1724 29.1891 17.2552C33.2897 17.6414 37.3625 18.8 40.8813 20.8C41.477 21.131 42.2528 21.6966 42.8069 21.9448C42.7515 12.2207 30.325 7.97242 24.2572 15.8483C23.8832 16.331 23.7169 16.7172 23.3845 17.2" fill="#3F51B3"/>
  <path fill-rule="evenodd" clip-rule="evenodd" d="M23.3983 17.2C22.9689 18.1379 22.4979 19.1034 22.3871 20.2896C26.4877 19.931 30.0064 20.0827 33.8022 21.1034C35.4369 21.5448 36.9331 22.1241 38.36 22.8275C39.496 23.3793 41.5047 24.4965 42.2527 25.2413C42.7099 24.5655 42.8623 22.8827 42.8208 21.9448C42.2666 21.6965 41.4908 21.131 40.8951 20.8C37.3764 18.8 33.2897 17.6551 29.203 17.2551C28.261 17.1586 27.305 17.1172 26.3352 17.1172C25.3932 17.1172 24.285 17.2413 23.4122 17.2" fill="#F6F8FC"/>
</svg>